<?xml version="1.0" encoding="UTF-8" standalone="no"?>
<!DOCTYPE svg PUBLIC "-//W3C//DTD SVG 1.1//EN"
 "http://www.w3.org/Graphics/SVG/1.1/DTD/svg11.dtd">
<!-- Generated by graphviz version 2.38.0 (20140413.2041)
 -->
<!-- Title: snakemake_dag Pages: 1 -->
<svg width="731pt" height="474pt"
 viewBox="0.00 0.00 730.74 474.00" xmlns="http://www.w3.org/2000/svg" xmlns:xlink="http://www.w3.org/1999/xlink">
<g id="graph0" class="graph" transform="scale(1 1) rotate(0) translate(4 470)">
<title>snakemake_dag</title>
<polygon fill="white" stroke="none" points="-4,4 -4,-470 726.736,-470 726.736,4 -4,4"/>
<!-- 1 -->
<g id="node1" class="node"><title>1</title>
<path fill="none" stroke="#d8b456" stroke-width="2" stroke-dasharray="5,2" d="M499.167,-380C499.167,-380 448.306,-380 448.306,-380 442.306,-380 436.306,-374 436.306,-368 436.306,-368 436.306,-356 436.306,-356 436.306,-350 442.306,-344 448.306,-344 448.306,-344 499.167,-344 499.167,-344 505.167,-344 511.167,-350 511.167,-356 511.167,-356 511.167,-368 511.167,-368 511.167,-374 505.167,-380 499.167,-380"/>
<text text-anchor="middle" x="473.736" y="-359" font-family="sans" font-size="10.00">bwa_index: 1</text>
</g>
<!-- 5 -->
<g id="node5" class="node"><title>5</title>
<path fill="none" stroke="#56d8a9" stroke-width="2" stroke-dasharray="5,2" d="M652.007,-294C652.007,-294 587.465,-294 587.465,-294 581.465,-294 575.465,-288 575.465,-282 575.465,-282 575.465,-270 575.465,-270 575.465,-264 581.465,-258 587.465,-258 587.465,-258 652.007,-258 652.007,-258 658.007,-258 664.007,-264 664.007,-270 664.007,-270 664.007,-282 664.007,-282 664.007,-288 658.007,-294 652.007,-294"/>
<text text-anchor="middle" x="619.736" y="-273" font-family="sans" font-size="10.00">map_reads: 375</text>
</g>
<!-- 1&#45;&gt;5 -->
<g id="edge1" class="edge"><title>1&#45;&gt;5</title>
<path fill="none" stroke="grey" stroke-width="2" stroke-dasharray="5,2" d="M503.634,-343.799C526.049,-330.903 556.91,-313.147 581.181,-299.183"/>
<polygon fill="grey" stroke="grey" stroke-width="2" points="583.206,-302.055 590.129,-294.035 579.715,-295.988 583.206,-302.055"/>
<text text-anchor="middle" x="565.236" y="-314.8" font-family="Times,serif" font-size="14.00">375</text>
</g>
<!-- 6 -->
<g id="node6" class="node"><title>6</title>
<path fill="none" stroke="#56d8a9" stroke-width="2" d="M380.384,-294C380.384,-294 327.089,-294 327.089,-294 321.089,-294 315.089,-288 315.089,-282 315.089,-282 315.089,-270 315.089,-270 315.089,-264 321.089,-258 327.089,-258 327.089,-258 380.384,-258 380.384,-258 386.384,-258 392.384,-264 392.384,-270 392.384,-270 392.384,-282 392.384,-282 392.384,-288 386.384,-294 380.384,-294"/>
<text text-anchor="middle" x="353.736" y="-273" font-family="sans" font-size="10.00">map_reads: 9</text>
</g>
<!-- 1&#45;&gt;6 -->
<g id="edge2" class="edge"><title>1&#45;&gt;6</title>
<path fill="none" stroke="grey" stroke-width="2" d="M449.163,-343.799C431.124,-331.172 406.43,-313.886 386.682,-300.062"/>
<polygon fill="grey" stroke="grey" stroke-width="2" points="388.476,-297.046 378.277,-294.178 384.462,-302.78 388.476,-297.046"/>
<text text-anchor="middle" x="424.236" y="-314.8" font-family="Times,serif" font-size="14.00">9</text>
</g>
<!-- 2 -->
<g id="node2" class="node"><title>2</title>
<path fill="none" stroke="#56d863" stroke-width="2" stroke-dasharray="5,2" d="M63.7105,-122C63.7105,-122 11.7622,-122 11.7622,-122 5.76218,-122 -0.237817,-116 -0.237817,-110 -0.237817,-110 -0.237817,-98 -0.237817,-98 -0.237817,-92 5.76218,-86 11.7622,-86 11.7622,-86 63.7105,-86 63.7105,-86 69.7105,-86 75.7105,-92 75.7105,-98 75.7105,-98 75.7105,-110 75.7105,-110 75.7105,-116 69.7105,-122 63.7105,-122"/>
<text text-anchor="middle" x="37.7363" y="-106" font-family="sans" font-size="10.00">fastqc: 378</text>
<text text-anchor="middle" x="37.7363" y="-96" font-family="sans" font-size="10.00">[sample, unit]</text>
</g>
<!-- 15 -->
<g id="node15" class="node"><title>15</title>
<path fill="none" stroke="#c6d856" stroke-width="2" d="M461.759,-36C461.759,-36 345.714,-36 345.714,-36 339.714,-36 333.714,-30 333.714,-24 333.714,-24 333.714,-12 333.714,-12 333.714,-6 339.714,-0 345.714,-0 345.714,-0 461.759,-0 461.759,-0 467.759,-0 473.759,-6 473.759,-12 473.759,-12 473.759,-24 473.759,-24 473.759,-30 467.759,-36 461.759,-36"/>
<text text-anchor="middle" x="403.736" y="-15" font-family="sans" font-size="10.00">multiqc_and_index_bams: 1</text>
</g>
<!-- 2&#45;&gt;15 -->
<g id="edge3" class="edge"><title>2&#45;&gt;15</title>
<path fill="none" stroke="grey" stroke-width="2" d="M75.524,-88.6451C78.2911,-87.714 81.0495,-86.8217 83.7363,-86 163.854,-61.4983 257.964,-42.9773 323.298,-31.6857"/>
<polygon fill="grey" stroke="grey" stroke-width="2" points="324.263,-35.0715 333.53,-29.9357 323.083,-28.1717 324.263,-35.0715"/>
<text text-anchor="middle" x="216.236" y="-56.8" font-family="Times,serif" font-size="14.00">378</text>
</g>
<!-- 3 -->
<g id="node3" class="node"><title>3</title>
<path fill="none" stroke="#56d863" stroke-width="2" d="M156.71,-122C156.71,-122 104.762,-122 104.762,-122 98.7622,-122 92.7622,-116 92.7622,-110 92.7622,-110 92.7622,-98 92.7622,-98 92.7622,-92 98.7622,-86 104.762,-86 104.762,-86 156.71,-86 156.71,-86 162.71,-86 168.71,-92 168.71,-98 168.71,-98 168.71,-110 168.71,-110 168.71,-116 162.71,-122 156.71,-122"/>
<text text-anchor="middle" x="130.736" y="-106" font-family="sans" font-size="10.00">fastqc: 6</text>
<text text-anchor="middle" x="130.736" y="-96" font-family="sans" font-size="10.00">[sample, unit]</text>
</g>
<!-- 3&#45;&gt;15 -->
<g id="edge4" class="edge"><title>3&#45;&gt;15</title>
<path fill="none" stroke="grey" stroke-width="2" d="M168.635,-89.0755C171.707,-88.013 174.769,-86.9756 177.736,-86 229.241,-69.0672 287.962,-51.7167 332.638,-38.9157"/>
<polygon fill="grey" stroke="grey" stroke-width="2" points="333.871,-42.2037 342.525,-36.0914 331.948,-35.473 333.871,-42.2037"/>
<text text-anchor="middle" x="280.236" y="-56.8" font-family="Times,serif" font-size="14.00">6</text>
</g>
<!-- 4 -->
<g id="node4" class="node"><title>4</title>
<path fill="none" stroke="#a7d856" stroke-width="2" stroke-dasharray="5,2" d="M502.956,-466C502.956,-466 444.517,-466 444.517,-466 438.517,-466 432.517,-460 432.517,-454 432.517,-454 432.517,-442 432.517,-442 432.517,-436 438.517,-430 444.517,-430 444.517,-430 502.956,-430 502.956,-430 508.956,-430 514.956,-436 514.956,-442 514.956,-442 514.956,-454 514.956,-454 514.956,-460 508.956,-466 502.956,-466"/>
<text text-anchor="middle" x="473.736" y="-445" font-family="sans" font-size="10.00">get_genome: 1</text>
</g>
<!-- 4&#45;&gt;1 -->
<g id="edge5" class="edge"><title>4&#45;&gt;1</title>
<path fill="none" stroke="grey" stroke-width="2" stroke-dasharray="5,2" d="M473.736,-429.595C473.736,-418.257 473.736,-403.227 473.736,-390.315"/>
<polygon fill="grey" stroke="grey" stroke-width="2" points="477.236,-390.095 473.736,-380.095 470.236,-390.095 477.236,-390.095"/>
<text text-anchor="middle" x="477.236" y="-400.8" font-family="Times,serif" font-size="14.00">1</text>
</g>
<!-- 7 -->
<g id="node7" class="node"><title>7</title>
<path fill="none" stroke="#78d856" stroke-width="2" stroke-dasharray="5,2" d="M675.29,-208C675.29,-208 588.183,-208 588.183,-208 582.183,-208 576.183,-202 576.183,-196 576.183,-196 576.183,-184 576.183,-184 576.183,-178 582.183,-172 588.183,-172 588.183,-172 675.29,-172 675.29,-172 681.29,-172 687.29,-178 687.29,-184 687.29,-184 687.29,-196 687.29,-196 687.29,-202 681.29,-208 675.29,-208"/>
<text text-anchor="middle" x="631.736" y="-187" font-family="sans" font-size="10.00">mark_duplicates: 375</text>
</g>
<!-- 5&#45;&gt;7 -->
<g id="edge6" class="edge"><title>5&#45;&gt;7</title>
<path fill="none" stroke="grey" stroke-width="2" stroke-dasharray="5,2" d="M622.223,-257.595C623.842,-246.257 625.99,-231.227 627.834,-218.315"/>
<polygon fill="grey" stroke="grey" stroke-width="2" points="631.345,-218.49 629.294,-208.095 624.415,-217.5 631.345,-218.49"/>
<text text-anchor="middle" x="636.236" y="-228.8" font-family="Times,serif" font-size="14.00">375</text>
</g>
<!-- 8 -->
<g id="node8" class="node"><title>8</title>
<path fill="none" stroke="#78d856" stroke-width="2" d="M385.667,-208C385.667,-208 309.806,-208 309.806,-208 303.806,-208 297.806,-202 297.806,-196 297.806,-196 297.806,-184 297.806,-184 297.806,-178 303.806,-172 309.806,-172 309.806,-172 385.667,-172 385.667,-172 391.667,-172 397.667,-178 397.667,-184 397.667,-184 397.667,-196 397.667,-196 397.667,-202 391.667,-208 385.667,-208"/>
<text text-anchor="middle" x="347.736" y="-187" font-family="sans" font-size="10.00">mark_duplicates: 9</text>
</g>
<!-- 6&#45;&gt;8 -->
<g id="edge7" class="edge"><title>6&#45;&gt;8</title>
<path fill="none" stroke="grey" stroke-width="2" d="M352.493,-257.595C351.683,-246.257 350.61,-231.227 349.687,-218.315"/>
<polygon fill="grey" stroke="grey" stroke-width="2" points="353.161,-217.82 348.957,-208.095 346.179,-218.319 353.161,-217.82"/>
<text text-anchor="middle" x="355.236" y="-228.8" font-family="Times,serif" font-size="14.00">9</text>
</g>
<!-- 9 -->
<g id="node9" class="node"><title>9</title>
<path fill="none" stroke="#68d856" stroke-width="2" stroke-dasharray="5,2" d="M551.46,-122C551.46,-122 468.012,-122 468.012,-122 462.012,-122 456.012,-116 456.012,-110 456.012,-110 456.012,-98 456.012,-98 456.012,-92 462.012,-86 468.012,-86 468.012,-86 551.46,-86 551.46,-86 557.46,-86 563.46,-92 563.46,-98 563.46,-98 563.46,-110 563.46,-110 563.46,-116 557.46,-122 551.46,-122"/>
<text text-anchor="middle" x="509.736" y="-106" font-family="sans" font-size="10.00">samtools_index: 375</text>
<text text-anchor="middle" x="509.736" y="-96" font-family="sans" font-size="10.00">[prefix]</text>
</g>
<!-- 7&#45;&gt;9 -->
<g id="edge9" class="edge"><title>7&#45;&gt;9</title>
<path fill="none" stroke="grey" stroke-width="2" stroke-dasharray="5,2" d="M606.753,-171.799C588.332,-159.115 563.083,-141.73 542.961,-127.876"/>
<polygon fill="grey" stroke="grey" stroke-width="2" points="544.907,-124.967 534.686,-122.178 540.937,-130.732 544.907,-124.967"/>
<text text-anchor="middle" x="588.236" y="-142.8" font-family="Times,serif" font-size="14.00">375</text>
</g>
<!-- 11 -->
<g id="node11" class="node"><title>11</title>
<path fill="none" stroke="#56d87b" stroke-width="2" stroke-dasharray="5,2" d="M674.172,-122C674.172,-122 593.301,-122 593.301,-122 587.301,-122 581.301,-116 581.301,-110 581.301,-110 581.301,-98 581.301,-98 581.301,-92 587.301,-86 593.301,-86 593.301,-86 674.172,-86 674.172,-86 680.172,-86 686.172,-92 686.172,-98 686.172,-98 686.172,-110 686.172,-110 686.172,-116 680.172,-122 674.172,-122"/>
<text text-anchor="middle" x="633.736" y="-101" font-family="sans" font-size="10.00">samtools_stats: 375</text>
</g>
<!-- 7&#45;&gt;11 -->
<g id="edge10" class="edge"><title>7&#45;&gt;11</title>
<path fill="none" stroke="grey" stroke-width="2" stroke-dasharray="5,2" d="M632.151,-171.595C632.421,-160.257 632.779,-145.227 633.086,-132.315"/>
<polygon fill="grey" stroke="grey" stroke-width="2" points="636.59,-132.176 633.329,-122.095 629.592,-132.009 636.59,-132.176"/>
<text text-anchor="middle" x="643.236" y="-142.8" font-family="Times,serif" font-size="14.00">375</text>
</g>
<!-- 7&#45;&gt;15 -->
<g id="edge8" class="edge"><title>7&#45;&gt;15</title>
<path fill="none" stroke="grey" stroke-width="2" d="M655.336,-171.756C681.436,-150.592 717.037,-114.063 694.736,-86 668.846,-53.4196 560.985,-35.3532 484.146,-26.4099"/>
<polygon fill="grey" stroke="grey" stroke-width="2" points="484.324,-22.9078 473.994,-25.26 483.536,-29.8633 484.324,-22.9078"/>
<text text-anchor="middle" x="712.236" y="-99.8" font-family="Times,serif" font-size="14.00">375</text>
</g>
<!-- 10 -->
<g id="node10" class="node"><title>10</title>
<path fill="none" stroke="#68d856" stroke-width="2" d="M270.838,-122C270.838,-122 198.635,-122 198.635,-122 192.635,-122 186.635,-116 186.635,-110 186.635,-110 186.635,-98 186.635,-98 186.635,-92 192.635,-86 198.635,-86 198.635,-86 270.838,-86 270.838,-86 276.838,-86 282.838,-92 282.838,-98 282.838,-98 282.838,-110 282.838,-110 282.838,-116 276.838,-122 270.838,-122"/>
<text text-anchor="middle" x="234.736" y="-106" font-family="sans" font-size="10.00">samtools_index: 9</text>
<text text-anchor="middle" x="234.736" y="-96" font-family="sans" font-size="10.00">[prefix]</text>
</g>
<!-- 8&#45;&gt;10 -->
<g id="edge12" class="edge"><title>8&#45;&gt;10</title>
<path fill="none" stroke="grey" stroke-width="2" d="M324.596,-171.799C307.686,-159.228 284.565,-142.04 266.01,-128.248"/>
<polygon fill="grey" stroke="grey" stroke-width="2" points="267.959,-125.335 257.845,-122.178 263.783,-130.953 267.959,-125.335"/>
<text text-anchor="middle" x="302.236" y="-142.8" font-family="Times,serif" font-size="14.00">9</text>
</g>
<!-- 12 -->
<g id="node12" class="node"><title>12</title>
<path fill="none" stroke="#56d87b" stroke-width="2" d="M382.549,-122C382.549,-122 312.924,-122 312.924,-122 306.924,-122 300.924,-116 300.924,-110 300.924,-110 300.924,-98 300.924,-98 300.924,-92 306.924,-86 312.924,-86 312.924,-86 382.549,-86 382.549,-86 388.549,-86 394.549,-92 394.549,-98 394.549,-98 394.549,-110 394.549,-110 394.549,-116 388.549,-122 382.549,-122"/>
<text text-anchor="middle" x="347.736" y="-101" font-family="sans" font-size="10.00">samtools_stats: 9</text>
</g>
<!-- 8&#45;&gt;12 -->
<g id="edge13" class="edge"><title>8&#45;&gt;12</title>
<path fill="none" stroke="grey" stroke-width="2" d="M347.736,-171.595C347.736,-160.257 347.736,-145.227 347.736,-132.315"/>
<polygon fill="grey" stroke="grey" stroke-width="2" points="351.236,-132.095 347.736,-122.095 344.236,-132.095 351.236,-132.095"/>
<text text-anchor="middle" x="351.236" y="-142.8" font-family="Times,serif" font-size="14.00">9</text>
</g>
<!-- 8&#45;&gt;15 -->
<g id="edge11" class="edge"><title>8&#45;&gt;15</title>
<path fill="none" stroke="grey" stroke-width="2" d="M367.913,-171.953C380.885,-159.599 396.6,-141.666 403.736,-122 412.659,-97.4103 411.385,-67.2906 408.653,-45.9901"/>
<polygon fill="grey" stroke="grey" stroke-width="2" points="412.104,-45.4024 407.186,-36.0184 405.179,-46.4214 412.104,-45.4024"/>
<text text-anchor="middle" x="414.236" y="-99.8" font-family="Times,serif" font-size="14.00">9</text>
</g>
<!-- 9&#45;&gt;15 -->
<g id="edge14" class="edge"><title>9&#45;&gt;15</title>
<path fill="none" stroke="grey" stroke-width="2" d="M488.03,-85.7986C472.31,-73.3415 450.868,-56.3498 433.544,-42.6214"/>
<polygon fill="grey" stroke="grey" stroke-width="2" points="435.425,-39.6461 425.414,-36.1783 431.077,-45.1323 435.425,-39.6461"/>
<text text-anchor="middle" x="473.236" y="-56.8" font-family="Times,serif" font-size="14.00">375</text>
</g>
<!-- 10&#45;&gt;15 -->
<g id="edge15" class="edge"><title>10&#45;&gt;15</title>
<path fill="none" stroke="grey" stroke-width="2" d="M269.344,-85.7986C295.632,-72.7321 331.958,-54.6766 360.217,-40.6311"/>
<polygon fill="grey" stroke="grey" stroke-width="2" points="362.067,-43.6198 369.464,-36.0346 358.952,-37.3514 362.067,-43.6198"/>
<text text-anchor="middle" x="333.236" y="-56.8" font-family="Times,serif" font-size="14.00">9</text>
</g>
<!-- 11&#45;&gt;15 -->
<g id="edge16" class="edge"><title>11&#45;&gt;15</title>
<path fill="none" stroke="grey" stroke-width="2" d="M586.915,-85.9001C550.227,-72.5009 499.049,-53.8098 460.111,-39.5891"/>
<polygon fill="grey" stroke="grey" stroke-width="2" points="461.086,-36.219 450.492,-36.076 458.684,-42.7942 461.086,-36.219"/>
<text text-anchor="middle" x="542.236" y="-56.8" font-family="Times,serif" font-size="14.00">375</text>
</g>
<!-- 12&#45;&gt;15 -->
<g id="edge17" class="edge"><title>12&#45;&gt;15</title>
<path fill="none" stroke="grey" stroke-width="2" d="M359.34,-85.5951C367.201,-73.8037 377.724,-58.0188 386.552,-44.7764"/>
<polygon fill="grey" stroke="grey" stroke-width="2" points="389.705,-46.3571 392.34,-36.0952 383.88,-42.4742 389.705,-46.3571"/>
<text text-anchor="middle" x="383.236" y="-56.8" font-family="Times,serif" font-size="14.00">9</text>
</g>
<!-- 13 -->
<g id="node13" class="node"><title>13</title>
<path fill="none" stroke="#d8a456" stroke-width="2" stroke-dasharray="5,2" d="M658.899,-380C658.899,-380 580.574,-380 580.574,-380 574.574,-380 568.574,-374 568.574,-368 568.574,-368 568.574,-356 568.574,-356 568.574,-350 574.574,-344 580.574,-344 580.574,-344 658.899,-344 658.899,-344 664.899,-344 670.899,-350 670.899,-356 670.899,-356 670.899,-368 670.899,-368 670.899,-374 664.899,-380 658.899,-380"/>
<text text-anchor="middle" x="619.736" y="-364" font-family="sans" font-size="10.00">trim_reads_pe: 375</text>
<text text-anchor="middle" x="619.736" y="-354" font-family="sans" font-size="10.00">[sample, unit]</text>
</g>
<!-- 13&#45;&gt;5 -->
<g id="edge18" class="edge"><title>13&#45;&gt;5</title>
<path fill="none" stroke="grey" stroke-width="2" stroke-dasharray="5,2" d="M619.736,-343.595C619.736,-332.257 619.736,-317.227 619.736,-304.315"/>
<polygon fill="grey" stroke="grey" stroke-width="2" points="623.236,-304.095 619.736,-294.095 616.236,-304.095 623.236,-304.095"/>
<text text-anchor="middle" x="630.236" y="-314.8" font-family="Times,serif" font-size="14.00">375</text>
</g>
<!-- 14 -->
<g id="node14" class="node"><title>14</title>
<path fill="none" stroke="#d8a456" stroke-width="2" d="M387.275,-380C387.275,-380 320.197,-380 320.197,-380 314.197,-380 308.197,-374 308.197,-368 308.197,-368 308.197,-356 308.197,-356 308.197,-350 314.197,-344 320.197,-344 320.197,-344 387.275,-344 387.275,-344 393.275,-344 399.275,-350 399.275,-356 399.275,-356 399.275,-368 399.275,-368 399.275,-374 393.275,-380 387.275,-380"/>
<text text-anchor="middle" x="353.736" y="-364" font-family="sans" font-size="10.00">trim_reads_pe: 9</text>
<text text-anchor="middle" x="353.736" y="-354" font-family="sans" font-size="10.00">[sample, unit]</text>
</g>
<!-- 14&#45;&gt;6 -->
<g id="edge19" class="edge"><title>14&#45;&gt;6</title>
<path fill="none" stroke="grey" stroke-width="2" d="M353.736,-343.595C353.736,-332.257 353.736,-317.227 353.736,-304.315"/>
<polygon fill="grey" stroke="grey" stroke-width="2" points="357.236,-304.095 353.736,-294.095 350.236,-304.095 357.236,-304.095"/>
<text text-anchor="middle" x="357.236" y="-314.8" font-family="Times,serif" font-size="14.00">9</text>
</g>
</g>
</svg>
