<?xml version="1.0" encoding="UTF-8" standalone="no"?>
<!DOCTYPE svg PUBLIC "-//W3C//DTD SVG 1.1//EN"
 "http://www.w3.org/Graphics/SVG/1.1/DTD/svg11.dtd">
<!-- Generated by graphviz version 2.38.0 (20140413.2041)
 -->
<!-- Title: snakemake_dag Pages: 1 -->
<svg width="1236pt" height="754pt"
 viewBox="0.00 0.00 1235.65 754.00" xmlns="http://www.w3.org/2000/svg" xmlns:xlink="http://www.w3.org/1999/xlink">
<g id="graph0" class="graph" transform="scale(1 1) rotate(0) translate(4 750)">
<title>snakemake_dag</title>
<polygon fill="white" stroke="none" points="-4,4 -4,-750 1231.65,-750 1231.65,4 -4,4"/>
<!-- 1 -->
<g id="node1" class="node"><title>1</title>
<path fill="none" stroke="#61d856" stroke-width="2" stroke-dasharray="5,2" d="M712.177,-660C712.177,-660 661.316,-660 661.316,-660 655.316,-660 649.316,-654 649.316,-648 649.316,-648 649.316,-636 649.316,-636 649.316,-630 655.316,-624 661.316,-624 661.316,-624 712.177,-624 712.177,-624 718.177,-624 724.177,-630 724.177,-636 724.177,-636 724.177,-648 724.177,-648 724.177,-654 718.177,-660 712.177,-660"/>
<text text-anchor="middle" x="686.747" y="-639" font-family="sans" font-size="10.00">bwa_index: 1</text>
</g>
<!-- 10 -->
<g id="node10" class="node"><title>10</title>
<path fill="none" stroke="#d86656" stroke-width="2" stroke-dasharray="5,2" d="M691.018,-552C691.018,-552 626.476,-552 626.476,-552 620.476,-552 614.476,-546 614.476,-540 614.476,-540 614.476,-528 614.476,-528 614.476,-522 620.476,-516 626.476,-516 626.476,-516 691.018,-516 691.018,-516 697.018,-516 703.018,-522 703.018,-528 703.018,-528 703.018,-540 703.018,-540 703.018,-546 697.018,-552 691.018,-552"/>
<text text-anchor="middle" x="658.747" y="-531" font-family="sans" font-size="10.00">map_reads: 375</text>
</g>
<!-- 1&#45;&gt;10 -->
<g id="edge1" class="edge"><title>1&#45;&gt;10</title>
<path fill="none" stroke="grey" stroke-width="2" stroke-dasharray="5,2" d="M679.119,-623.778C676.843,-618.185 674.492,-611.899 672.747,-606 668.529,-591.74 665.218,-575.489 662.878,-562.137"/>
<polygon fill="grey" stroke="grey" stroke-width="2" points="666.309,-561.43 661.21,-552.143 659.404,-562.583 666.309,-561.43"/>
<text text-anchor="middle" x="683.247" y="-583.8" font-family="Times,serif" font-size="14.00">375</text>
</g>
<!-- 11 -->
<g id="node11" class="node"><title>11</title>
<path fill="none" stroke="#d86656" stroke-width="2" d="M814.394,-552C814.394,-552 761.099,-552 761.099,-552 755.099,-552 749.099,-546 749.099,-540 749.099,-540 749.099,-528 749.099,-528 749.099,-522 755.099,-516 761.099,-516 761.099,-516 814.394,-516 814.394,-516 820.394,-516 826.394,-522 826.394,-528 826.394,-528 826.394,-540 826.394,-540 826.394,-546 820.394,-552 814.394,-552"/>
<text text-anchor="middle" x="787.747" y="-531" font-family="sans" font-size="10.00">map_reads: 9</text>
</g>
<!-- 1&#45;&gt;11 -->
<g id="edge2" class="edge"><title>1&#45;&gt;11</title>
<path fill="none" stroke="grey" stroke-width="2" d="M702.974,-623.969C719.515,-606.61 745.343,-579.503 764.146,-559.769"/>
<polygon fill="grey" stroke="grey" stroke-width="2" points="766.86,-561.995 771.224,-552.341 761.792,-557.166 766.86,-561.995"/>
<text text-anchor="middle" x="756.247" y="-583.8" font-family="Times,serif" font-size="14.00">9</text>
</g>
<!-- 2 -->
<g id="node2" class="node"><title>2</title>
<path fill="none" stroke="#88d856" stroke-width="2" stroke-dasharray="5,2" d="M390.131,-294C390.131,-294 309.362,-294 309.362,-294 303.362,-294 297.362,-288 297.362,-282 297.362,-282 297.362,-270 297.362,-270 297.362,-264 303.362,-258 309.362,-258 309.362,-258 390.131,-258 390.131,-258 396.131,-258 402.131,-264 402.131,-270 402.131,-270 402.131,-282 402.131,-282 402.131,-288 396.131,-294 390.131,-294"/>
<text text-anchor="middle" x="349.747" y="-273" font-family="sans" font-size="10.00">eca_call_variants: 4</text>
</g>
<!-- 6 -->
<g id="node6" class="node"><title>6</title>
<path fill="none" stroke="#97d856" stroke-width="2" stroke-dasharray="5,2" d="M406.675,-208C406.675,-208 230.818,-208 230.818,-208 224.818,-208 218.818,-202 218.818,-196 218.818,-196 218.818,-184 218.818,-184 218.818,-178 224.818,-172 230.818,-172 230.818,-172 406.675,-172 406.675,-172 412.675,-172 418.675,-178 418.675,-184 418.675,-184 418.675,-196 418.675,-196 418.675,-202 412.675,-208 406.675,-208"/>
<text text-anchor="middle" x="318.747" y="-187" font-family="sans" font-size="10.00">genomics_db_import_chromosomes: 136</text>
</g>
<!-- 2&#45;&gt;6 -->
<g id="edge3" class="edge"><title>2&#45;&gt;6</title>
<path fill="none" stroke="grey" stroke-width="2" stroke-dasharray="5,2" d="M343.323,-257.595C339.055,-246.03 333.37,-230.624 328.542,-217.543"/>
<polygon fill="grey" stroke="grey" stroke-width="2" points="331.801,-216.265 325.056,-208.095 325.234,-218.688 331.801,-216.265"/>
<text text-anchor="middle" x="347.247" y="-228.8" font-family="Times,serif" font-size="14.00">136</text>
</g>
<!-- 7 -->
<g id="node7" class="node"><title>7</title>
<path fill="none" stroke="#d89556" stroke-width="2" stroke-dasharray="5,2" d="M189.74,-208C189.74,-208 11.7528,-208 11.7528,-208 5.75281,-208 -0.247187,-202 -0.247187,-196 -0.247187,-196 -0.247187,-184 -0.247187,-184 -0.247187,-178 5.75281,-172 11.7528,-172 11.7528,-172 189.74,-172 189.74,-172 195.74,-172 201.74,-178 201.74,-184 201.74,-184 201.74,-196 201.74,-196 201.74,-202 195.74,-208 189.74,-208"/>
<text text-anchor="middle" x="100.747" y="-187" font-family="sans" font-size="10.00">genomics_db_import_scaffold_groups: 56</text>
</g>
<!-- 2&#45;&gt;7 -->
<g id="edge4" class="edge"><title>2&#45;&gt;7</title>
<path fill="none" stroke="grey" stroke-width="2" stroke-dasharray="5,2" d="M299.058,-257.9C259.086,-244.416 203.228,-225.572 160.976,-211.319"/>
<polygon fill="grey" stroke="grey" stroke-width="2" points="161.959,-207.956 151.365,-208.076 159.721,-214.589 161.959,-207.956"/>
<text text-anchor="middle" x="247.747" y="-228.8" font-family="Times,serif" font-size="14.00">56</text>
</g>
<!-- 3 -->
<g id="node3" class="node"><title>3</title>
<path fill="none" stroke="#78d856" stroke-width="2" stroke-dasharray="5,2" d="M696.168,-380C696.168,-380 655.326,-380 655.326,-380 649.326,-380 643.326,-374 643.326,-368 643.326,-368 643.326,-356 643.326,-356 643.326,-350 649.326,-344 655.326,-344 655.326,-344 696.168,-344 696.168,-344 702.168,-344 708.168,-350 708.168,-356 708.168,-356 708.168,-368 708.168,-368 708.168,-374 702.168,-380 696.168,-380"/>
<text text-anchor="middle" x="675.747" y="-359" font-family="sans" font-size="10.00">fastqc: 378</text>
</g>
<!-- 14 -->
<g id="node14" class="node"><title>14</title>
<path fill="none" stroke="#d87556" stroke-width="2" d="M907.769,-294C907.769,-294 791.724,-294 791.724,-294 785.724,-294 779.724,-288 779.724,-282 779.724,-282 779.724,-270 779.724,-270 779.724,-264 785.724,-258 791.724,-258 791.724,-258 907.769,-258 907.769,-258 913.769,-258 919.769,-264 919.769,-270 919.769,-270 919.769,-282 919.769,-282 919.769,-288 913.769,-294 907.769,-294"/>
<text text-anchor="middle" x="849.747" y="-273" font-family="sans" font-size="10.00">multiqc_and_index_bams: 9</text>
</g>
<!-- 3&#45;&gt;14 -->
<g id="edge5" class="edge"><title>3&#45;&gt;14</title>
<path fill="none" stroke="grey" stroke-width="2" d="M707.611,-343.967C725.944,-334.319 749.49,-322.18 770.747,-312 780.282,-307.434 790.554,-302.729 800.435,-298.308"/>
<polygon fill="grey" stroke="grey" stroke-width="2" points="802.034,-301.428 809.752,-294.17 799.193,-295.03 802.034,-301.428"/>
<text text-anchor="middle" x="781.247" y="-314.8" font-family="Times,serif" font-size="14.00">378</text>
</g>
<!-- 4 -->
<g id="node4" class="node"><title>4</title>
<path fill="none" stroke="#78d856" stroke-width="2" d="M767.747,-380C767.747,-380 737.747,-380 737.747,-380 731.747,-380 725.747,-374 725.747,-368 725.747,-368 725.747,-356 725.747,-356 725.747,-350 731.747,-344 737.747,-344 737.747,-344 767.747,-344 767.747,-344 773.747,-344 779.747,-350 779.747,-356 779.747,-356 779.747,-368 779.747,-368 779.747,-374 773.747,-380 767.747,-380"/>
<text text-anchor="middle" x="752.747" y="-359" font-family="sans" font-size="10.00">fastqc: 6</text>
</g>
<!-- 4&#45;&gt;14 -->
<g id="edge6" class="edge"><title>4&#45;&gt;14</title>
<path fill="none" stroke="grey" stroke-width="2" d="M772.845,-343.595C787.116,-331.237 806.452,-314.492 822.165,-300.885"/>
<polygon fill="grey" stroke="grey" stroke-width="2" points="824.737,-303.287 830.006,-294.095 820.155,-297.996 824.737,-303.287"/>
<text text-anchor="middle" x="811.247" y="-314.8" font-family="Times,serif" font-size="14.00">6</text>
</g>
<!-- 5 -->
<g id="node5" class="node"><title>5</title>
<path fill="none" stroke="#56b1d8" stroke-width="2" stroke-dasharray="5,2" d="M420.126,-606C420.126,-606 359.367,-606 359.367,-606 353.367,-606 347.367,-600 347.367,-594 347.367,-594 347.367,-582 347.367,-582 347.367,-576 353.367,-570 359.367,-570 359.367,-570 420.126,-570 420.126,-570 426.126,-570 432.126,-576 432.126,-582 432.126,-582 432.126,-594 432.126,-594 432.126,-600 426.126,-606 420.126,-606"/>
<text text-anchor="middle" x="389.747" y="-585" font-family="sans" font-size="10.00">genome_dict: 1</text>
</g>
<!-- 5&#45;&gt;2 -->
<g id="edge7" class="edge"><title>5&#45;&gt;2</title>
<path fill="none" stroke="grey" stroke-width="2" stroke-dasharray="5,2" d="M388.3,-569.852C386.824,-550.839 384.747,-519.251 384.747,-492 384.747,-492 384.747,-492 384.747,-361 384.747,-340.398 375.665,-318.988 366.753,-302.94"/>
<polygon fill="grey" stroke="grey" stroke-width="2" points="369.678,-301.008 361.596,-294.157 363.641,-304.552 369.678,-301.008"/>
<text text-anchor="middle" x="388.247" y="-443.8" font-family="Times,serif" font-size="14.00">4</text>
</g>
<!-- 8 -->
<g id="node8" class="node"><title>8</title>
<path fill="none" stroke="#70d856" stroke-width="2" d="M470.75,-122C470.75,-122 384.744,-122 384.744,-122 378.744,-122 372.744,-116 372.744,-110 372.744,-110 372.744,-98 372.744,-98 372.744,-92 378.744,-86 384.744,-86 384.744,-86 470.75,-86 470.75,-86 476.75,-86 482.75,-92 482.75,-98 482.75,-98 482.75,-110 482.75,-110 482.75,-116 476.75,-122 470.75,-122"/>
<text text-anchor="middle" x="427.747" y="-101" font-family="sans" font-size="10.00">genomics_db2vcf: 14</text>
</g>
<!-- 6&#45;&gt;8 -->
<g id="edge8" class="edge"><title>6&#45;&gt;8</title>
<path fill="none" stroke="grey" stroke-width="2" d="M341.067,-171.799C357.232,-159.342 379.281,-142.35 397.095,-128.621"/>
<polygon fill="grey" stroke="grey" stroke-width="2" points="399.671,-131.055 405.456,-122.178 395.398,-125.51 399.671,-131.055"/>
<text text-anchor="middle" x="387.747" y="-142.8" font-family="Times,serif" font-size="14.00">34</text>
</g>
<!-- 7&#45;&gt;8 -->
<g id="edge9" class="edge"><title>7&#45;&gt;8</title>
<path fill="none" stroke="grey" stroke-width="2" d="M167.314,-171.9C224.39,-157.238 306.132,-136.24 362.75,-121.696"/>
<polygon fill="grey" stroke="grey" stroke-width="2" points="363.851,-125.027 372.665,-119.149 362.109,-118.247 363.851,-125.027"/>
<text text-anchor="middle" x="291.747" y="-142.8" font-family="Times,serif" font-size="14.00">14</text>
</g>
<!-- 21 -->
<g id="node21" class="node"><title>21</title>
<path fill="none" stroke="#56a2d8" stroke-width="2" d="M630.747,-36C630.747,-36 600.747,-36 600.747,-36 594.747,-36 588.747,-30 588.747,-24 588.747,-24 588.747,-12 588.747,-12 588.747,-6 594.747,-0 600.747,-0 600.747,-0 630.747,-0 630.747,-0 636.747,-0 642.747,-6 642.747,-12 642.747,-12 642.747,-24 642.747,-24 642.747,-30 636.747,-36 630.747,-36"/>
<text text-anchor="middle" x="615.747" y="-15" font-family="sans" font-size="10.00">all: 1</text>
</g>
<!-- 8&#45;&gt;21 -->
<g id="edge10" class="edge"><title>8&#45;&gt;21</title>
<path fill="none" stroke="grey" stroke-width="2" d="M466.245,-85.7986C499.39,-70.989 546.88,-49.7704 579.388,-35.2454"/>
<polygon fill="grey" stroke="grey" stroke-width="2" points="580.846,-38.4273 588.549,-31.1523 577.991,-32.0362 580.846,-38.4273"/>
<text text-anchor="middle" x="540.747" y="-56.8" font-family="Times,serif" font-size="14.00">48</text>
</g>
<!-- 9 -->
<g id="node9" class="node"><title>9</title>
<path fill="none" stroke="#d6d856" stroke-width="2" stroke-dasharray="5,2" d="M455.027,-746C455.027,-746 390.466,-746 390.466,-746 384.466,-746 378.466,-740 378.466,-734 378.466,-734 378.466,-722 378.466,-722 378.466,-716 384.466,-710 390.466,-710 390.466,-710 455.027,-710 455.027,-710 461.027,-710 467.027,-716 467.027,-722 467.027,-722 467.027,-734 467.027,-734 467.027,-740 461.027,-746 455.027,-746"/>
<text text-anchor="middle" x="422.747" y="-725" font-family="sans" font-size="10.00">get_genome: 48</text>
</g>
<!-- 9&#45;&gt;1 -->
<g id="edge11" class="edge"><title>9&#45;&gt;1</title>
<path fill="none" stroke="grey" stroke-width="2" stroke-dasharray="5,2" d="M466.998,-714.009C508.928,-701.55 573.86,-681.868 639.417,-660.035"/>
<polygon fill="grey" stroke="grey" stroke-width="2" points="640.719,-663.29 649.092,-656.798 638.498,-656.652 640.719,-663.29"/>
<text text-anchor="middle" x="584.247" y="-680.8" font-family="Times,serif" font-size="14.00">1</text>
</g>
<!-- 9&#45;&gt;2 -->
<g id="edge12" class="edge"><title>9&#45;&gt;2</title>
<path fill="none" stroke="grey" stroke-width="2" stroke-dasharray="5,2" d="M385.1,-709.919C360.438,-695.875 332.747,-673.35 332.747,-643 332.747,-643 332.747,-643 332.747,-361 332.747,-341.715 337.104,-320.427 341.407,-304.106"/>
<polygon fill="grey" stroke="grey" stroke-width="2" points="344.863,-304.742 344.18,-294.169 338.121,-302.86 344.863,-304.742"/>
<text text-anchor="middle" x="336.247" y="-486.8" font-family="Times,serif" font-size="14.00">4</text>
</g>
<!-- 9&#45;&gt;5 -->
<g id="edge13" class="edge"><title>9&#45;&gt;5</title>
<path fill="none" stroke="grey" stroke-width="2" stroke-dasharray="5,2" d="M418.634,-709.801C413.027,-686.352 402.921,-644.094 396.273,-616.293"/>
<polygon fill="grey" stroke="grey" stroke-width="2" points="399.641,-615.327 393.911,-606.416 392.833,-616.955 399.641,-615.327"/>
<text text-anchor="middle" x="418.247" y="-680.8" font-family="Times,serif" font-size="14.00">1</text>
</g>
<!-- 9&#45;&gt;8 -->
<g id="edge14" class="edge"><title>9&#45;&gt;8</title>
<path fill="none" stroke="grey" stroke-width="2" d="M430.738,-709.713C437.72,-693.011 446.747,-666.812 446.747,-643 446.747,-643 446.747,-643 446.747,-189 446.747,-169.621 441.876,-148.333 437.067,-132.037"/>
<polygon fill="grey" stroke="grey" stroke-width="2" points="440.291,-130.62 433.968,-122.119 433.61,-132.708 440.291,-130.62"/>
<text text-anchor="middle" x="453.747" y="-400.8" font-family="Times,serif" font-size="14.00">48</text>
</g>
<!-- 12 -->
<g id="node12" class="node"><title>12</title>
<path fill="none" stroke="#56d8d8" stroke-width="2" stroke-dasharray="5,2" d="M702.3,-466C702.3,-466 615.193,-466 615.193,-466 609.193,-466 603.193,-460 603.193,-454 603.193,-454 603.193,-442 603.193,-442 603.193,-436 609.193,-430 615.193,-430 615.193,-430 702.3,-430 702.3,-430 708.3,-430 714.3,-436 714.3,-442 714.3,-442 714.3,-454 714.3,-454 714.3,-460 708.3,-466 702.3,-466"/>
<text text-anchor="middle" x="658.747" y="-445" font-family="sans" font-size="10.00">mark_duplicates: 375</text>
</g>
<!-- 10&#45;&gt;12 -->
<g id="edge15" class="edge"><title>10&#45;&gt;12</title>
<path fill="none" stroke="grey" stroke-width="2" stroke-dasharray="5,2" d="M658.747,-515.595C658.747,-504.257 658.747,-489.227 658.747,-476.315"/>
<polygon fill="grey" stroke="grey" stroke-width="2" points="662.247,-476.095 658.747,-466.095 655.247,-476.095 662.247,-476.095"/>
<text text-anchor="middle" x="669.247" y="-486.8" font-family="Times,serif" font-size="14.00">375</text>
</g>
<!-- 13 -->
<g id="node13" class="node"><title>13</title>
<path fill="none" stroke="#56d8d8" stroke-width="2" d="M1059.68,-466C1059.68,-466 983.816,-466 983.816,-466 977.816,-466 971.816,-460 971.816,-454 971.816,-454 971.816,-442 971.816,-442 971.816,-436 977.816,-430 983.816,-430 983.816,-430 1059.68,-430 1059.68,-430 1065.68,-430 1071.68,-436 1071.68,-442 1071.68,-442 1071.68,-454 1071.68,-454 1071.68,-460 1065.68,-466 1059.68,-466"/>
<text text-anchor="middle" x="1021.75" y="-445" font-family="sans" font-size="10.00">mark_duplicates: 9</text>
</g>
<!-- 11&#45;&gt;13 -->
<g id="edge16" class="edge"><title>11&#45;&gt;13</title>
<path fill="none" stroke="grey" stroke-width="2" d="M826.387,-519.129C864.04,-505.613 921.731,-484.903 964.672,-469.488"/>
<polygon fill="grey" stroke="grey" stroke-width="2" points="965.917,-472.76 974.146,-466.087 963.552,-466.172 965.917,-472.76"/>
<text text-anchor="middle" x="922.247" y="-486.8" font-family="Times,serif" font-size="14.00">9</text>
</g>
<!-- 12&#45;&gt;2 -->
<g id="edge17" class="edge"><title>12&#45;&gt;2</title>
<path fill="none" stroke="grey" stroke-width="2" stroke-dasharray="5,2" d="M612.31,-429.903C580.465,-417.526 537.647,-399.587 501.747,-380 478.107,-367.103 419.464,-326.365 382.317,-300.153"/>
<polygon fill="grey" stroke="grey" stroke-width="2" points="384.012,-297.066 373.826,-294.151 379.971,-302.781 384.012,-297.066"/>
<text text-anchor="middle" x="505.247" y="-357.8" font-family="Times,serif" font-size="14.00">4</text>
</g>
<!-- 12&#45;&gt;14 -->
<g id="edge18" class="edge"><title>12&#45;&gt;14</title>
<path fill="none" stroke="grey" stroke-width="2" d="M714.385,-440.107C781.117,-430.562 886.993,-410.918 910.747,-380 930.283,-354.571 904.108,-322.377 880.228,-300.811"/>
<polygon fill="grey" stroke="grey" stroke-width="2" points="882.463,-298.116 872.616,-294.204 877.874,-303.402 882.463,-298.116"/>
<text text-anchor="middle" x="927.247" y="-357.8" font-family="Times,serif" font-size="14.00">375</text>
</g>
<!-- 15 -->
<g id="node15" class="node"><title>15</title>
<path fill="none" stroke="#56d85b" stroke-width="2" stroke-dasharray="5,2" d="M613.471,-380C613.471,-380 530.023,-380 530.023,-380 524.023,-380 518.023,-374 518.023,-368 518.023,-368 518.023,-356 518.023,-356 518.023,-350 524.023,-344 530.023,-344 530.023,-344 613.471,-344 613.471,-344 619.471,-344 625.471,-350 625.471,-356 625.471,-356 625.471,-368 625.471,-368 625.471,-374 619.471,-380 613.471,-380"/>
<text text-anchor="middle" x="571.747" y="-359" font-family="sans" font-size="10.00">samtools_index: 375</text>
</g>
<!-- 12&#45;&gt;15 -->
<g id="edge19" class="edge"><title>12&#45;&gt;15</title>
<path fill="none" stroke="grey" stroke-width="2" stroke-dasharray="5,2" d="M640.72,-429.595C628.038,-417.35 610.895,-400.799 596.873,-387.26"/>
<polygon fill="grey" stroke="grey" stroke-width="2" points="599.077,-384.523 589.452,-380.095 594.215,-389.559 599.077,-384.523"/>
<text text-anchor="middle" x="631.247" y="-400.8" font-family="Times,serif" font-size="14.00">375</text>
</g>
<!-- 17 -->
<g id="node17" class="node"><title>17</title>
<path fill="none" stroke="#56d8b9" stroke-width="2" stroke-dasharray="5,2" d="M890.182,-380C890.182,-380 809.311,-380 809.311,-380 803.311,-380 797.311,-374 797.311,-368 797.311,-368 797.311,-356 797.311,-356 797.311,-350 803.311,-344 809.311,-344 809.311,-344 890.182,-344 890.182,-344 896.182,-344 902.182,-350 902.182,-356 902.182,-356 902.182,-368 902.182,-368 902.182,-374 896.182,-380 890.182,-380"/>
<text text-anchor="middle" x="849.747" y="-359" font-family="sans" font-size="10.00">samtools_stats: 375</text>
</g>
<!-- 12&#45;&gt;17 -->
<g id="edge20" class="edge"><title>12&#45;&gt;17</title>
<path fill="none" stroke="grey" stroke-width="2" stroke-dasharray="5,2" d="M697.859,-429.799C727.957,-416.562 769.698,-398.205 801.807,-384.084"/>
<polygon fill="grey" stroke="grey" stroke-width="2" points="803.268,-387.264 811.013,-380.035 800.45,-380.857 803.268,-387.264"/>
<text text-anchor="middle" x="776.247" y="-400.8" font-family="Times,serif" font-size="14.00">375</text>
</g>
<!-- 13&#45;&gt;14 -->
<g id="edge21" class="edge"><title>13&#45;&gt;14</title>
<path fill="none" stroke="grey" stroke-width="2" d="M1017.38,-429.89C1009.25,-401.412 989.138,-344.237 951.747,-312 945.05,-306.227 937.353,-301.392 929.252,-297.347"/>
<polygon fill="grey" stroke="grey" stroke-width="2" points="930.517,-294.077 919.967,-293.107 927.609,-300.445 930.517,-294.077"/>
<text text-anchor="middle" x="1001.25" y="-357.8" font-family="Times,serif" font-size="14.00">9</text>
</g>
<!-- 16 -->
<g id="node16" class="node"><title>16</title>
<path fill="none" stroke="#56d85b" stroke-width="2" d="M1103.85,-380C1103.85,-380 1031.65,-380 1031.65,-380 1025.65,-380 1019.65,-374 1019.65,-368 1019.65,-368 1019.65,-356 1019.65,-356 1019.65,-350 1025.65,-344 1031.65,-344 1031.65,-344 1103.85,-344 1103.85,-344 1109.85,-344 1115.85,-350 1115.85,-356 1115.85,-356 1115.85,-368 1115.85,-368 1115.85,-374 1109.85,-380 1103.85,-380"/>
<text text-anchor="middle" x="1067.75" y="-359" font-family="sans" font-size="10.00">samtools_index: 9</text>
</g>
<!-- 13&#45;&gt;16 -->
<g id="edge22" class="edge"><title>13&#45;&gt;16</title>
<path fill="none" stroke="grey" stroke-width="2" d="M1031.28,-429.595C1037.67,-417.917 1046.21,-402.322 1053.42,-389.159"/>
<polygon fill="grey" stroke="grey" stroke-width="2" points="1056.65,-390.547 1058.38,-380.095 1050.51,-387.185 1056.65,-390.547"/>
<text text-anchor="middle" x="1050.25" y="-400.8" font-family="Times,serif" font-size="14.00">9</text>
</g>
<!-- 18 -->
<g id="node18" class="node"><title>18</title>
<path fill="none" stroke="#56d8b9" stroke-width="2" d="M1215.56,-380C1215.56,-380 1145.93,-380 1145.93,-380 1139.93,-380 1133.93,-374 1133.93,-368 1133.93,-368 1133.93,-356 1133.93,-356 1133.93,-350 1139.93,-344 1145.93,-344 1145.93,-344 1215.56,-344 1215.56,-344 1221.56,-344 1227.56,-350 1227.56,-356 1227.56,-356 1227.56,-368 1227.56,-368 1227.56,-374 1221.56,-380 1215.56,-380"/>
<text text-anchor="middle" x="1180.75" y="-359" font-family="sans" font-size="10.00">samtools_stats: 9</text>
</g>
<!-- 13&#45;&gt;18 -->
<g id="edge23" class="edge"><title>13&#45;&gt;18</title>
<path fill="none" stroke="grey" stroke-width="2" d="M1054.31,-429.799C1078.93,-416.789 1112.92,-398.834 1139.45,-384.815"/>
<polygon fill="grey" stroke="grey" stroke-width="2" points="1141.3,-387.801 1148.5,-380.035 1138.03,-381.611 1141.3,-387.801"/>
<text text-anchor="middle" x="1114.25" y="-400.8" font-family="Times,serif" font-size="14.00">9</text>
</g>
<!-- 14&#45;&gt;21 -->
<g id="edge24" class="edge"><title>14&#45;&gt;21</title>
<path fill="none" stroke="grey" stroke-width="2" d="M834.03,-257.806C793.483,-213.447 685.235,-95.0218 638.146,-43.5053"/>
<polygon fill="grey" stroke="grey" stroke-width="2" points="640.725,-41.1393 631.395,-36.1196 635.558,-45.8621 640.725,-41.1393"/>
<text text-anchor="middle" x="742.247" y="-142.8" font-family="Times,serif" font-size="14.00">1</text>
</g>
<!-- 15&#45;&gt;2 -->
<g id="edge25" class="edge"><title>15&#45;&gt;2</title>
<path fill="none" stroke="grey" stroke-width="2" stroke-dasharray="5,2" d="M553.518,-343.869C541.196,-333.188 524.067,-319.999 506.747,-312 477.151,-298.332 441.9,-289.851 412.306,-284.669"/>
<polygon fill="grey" stroke="grey" stroke-width="2" points="412.532,-281.159 402.093,-282.971 411.383,-288.064 412.532,-281.159"/>
<text text-anchor="middle" x="534.247" y="-314.8" font-family="Times,serif" font-size="14.00">4</text>
</g>
<!-- 15&#45;&gt;14 -->
<g id="edge26" class="edge"><title>15&#45;&gt;14</title>
<path fill="none" stroke="grey" stroke-width="2" d="M620.858,-343.964C649.562,-334.202 686.562,-321.952 719.747,-312 737.125,-306.788 755.917,-301.519 773.668,-296.707"/>
<polygon fill="grey" stroke="grey" stroke-width="2" points="774.661,-300.064 783.407,-294.083 772.841,-293.305 774.661,-300.064"/>
<text text-anchor="middle" x="730.247" y="-314.8" font-family="Times,serif" font-size="14.00">375</text>
</g>
<!-- 16&#45;&gt;14 -->
<g id="edge27" class="edge"><title>16&#45;&gt;14</title>
<path fill="none" stroke="grey" stroke-width="2" d="M1051.24,-343.562C1040.19,-332.897 1024.77,-319.839 1008.75,-312 984.318,-300.053 955.794,-292.142 929.703,-286.921"/>
<polygon fill="grey" stroke="grey" stroke-width="2" points="930.313,-283.475 919.836,-285.049 929.008,-290.352 930.313,-283.475"/>
<text text-anchor="middle" x="1033.25" y="-314.8" font-family="Times,serif" font-size="14.00">9</text>
</g>
<!-- 17&#45;&gt;14 -->
<g id="edge28" class="edge"><title>17&#45;&gt;14</title>
<path fill="none" stroke="grey" stroke-width="2" d="M849.747,-343.595C849.747,-332.257 849.747,-317.227 849.747,-304.315"/>
<polygon fill="grey" stroke="grey" stroke-width="2" points="853.247,-304.095 849.747,-294.095 846.247,-304.095 853.247,-304.095"/>
<text text-anchor="middle" x="860.247" y="-314.8" font-family="Times,serif" font-size="14.00">375</text>
</g>
<!-- 18&#45;&gt;14 -->
<g id="edge29" class="edge"><title>18&#45;&gt;14</title>
<path fill="none" stroke="grey" stroke-width="2" d="M1137.46,-343.892C1110.07,-333.557 1073.73,-320.737 1040.75,-312 1004.86,-302.493 964.5,-294.688 930.16,-288.881"/>
<polygon fill="grey" stroke="grey" stroke-width="2" points="930.615,-285.409 920.176,-287.22 929.466,-292.314 930.615,-285.409"/>
<text text-anchor="middle" x="1086.25" y="-314.8" font-family="Times,serif" font-size="14.00">9</text>
</g>
<!-- 19 -->
<g id="node19" class="node"><title>19</title>
<path fill="none" stroke="#c6d856" stroke-width="2" stroke-dasharray="5,2" d="M618.909,-660C618.909,-660 540.584,-660 540.584,-660 534.584,-660 528.584,-654 528.584,-648 528.584,-648 528.584,-636 528.584,-636 528.584,-630 534.584,-624 540.584,-624 540.584,-624 618.909,-624 618.909,-624 624.909,-624 630.909,-630 630.909,-636 630.909,-636 630.909,-648 630.909,-648 630.909,-654 624.909,-660 618.909,-660"/>
<text text-anchor="middle" x="579.747" y="-639" font-family="sans" font-size="10.00">trim_reads_pe: 375</text>
</g>
<!-- 19&#45;&gt;10 -->
<g id="edge30" class="edge"><title>19&#45;&gt;10</title>
<path fill="none" stroke="grey" stroke-width="2" stroke-dasharray="5,2" d="M592.439,-623.969C605.205,-606.84 625.044,-580.221 639.698,-560.559"/>
<polygon fill="grey" stroke="grey" stroke-width="2" points="642.653,-562.45 645.823,-552.341 637.041,-558.267 642.653,-562.45"/>
<text text-anchor="middle" x="642.247" y="-583.8" font-family="Times,serif" font-size="14.00">375</text>
</g>
<!-- 20 -->
<g id="node20" class="node"><title>20</title>
<path fill="none" stroke="#c6d856" stroke-width="2" d="M821.286,-660C821.286,-660 754.208,-660 754.208,-660 748.208,-660 742.208,-654 742.208,-648 742.208,-648 742.208,-636 742.208,-636 742.208,-630 748.208,-624 754.208,-624 754.208,-624 821.286,-624 821.286,-624 827.286,-624 833.286,-630 833.286,-636 833.286,-636 833.286,-648 833.286,-648 833.286,-654 827.286,-660 821.286,-660"/>
<text text-anchor="middle" x="787.747" y="-639" font-family="sans" font-size="10.00">trim_reads_pe: 9</text>
</g>
<!-- 20&#45;&gt;11 -->
<g id="edge31" class="edge"><title>20&#45;&gt;11</title>
<path fill="none" stroke="grey" stroke-width="2" d="M787.747,-623.969C787.747,-607.378 787.747,-581.883 787.747,-562.431"/>
<polygon fill="grey" stroke="grey" stroke-width="2" points="791.247,-562.341 787.747,-552.341 784.247,-562.341 791.247,-562.341"/>
<text text-anchor="middle" x="791.247" y="-583.8" font-family="Times,serif" font-size="14.00">9</text>
</g>
</g>
</svg>
