<?xml version="1.0" encoding="UTF-8" standalone="no"?>
<!DOCTYPE svg PUBLIC "-//W3C//DTD SVG 1.1//EN"
 "http://www.w3.org/Graphics/SVG/1.1/DTD/svg11.dtd">
<!-- Generated by graphviz version 2.38.0 (20140413.2041)
 -->
<!-- Title: snakemake_dag Pages: 1 -->
<svg width="1058pt" height="732pt"
 viewBox="0.00 0.00 1057.91 732.00" xmlns="http://www.w3.org/2000/svg" xmlns:xlink="http://www.w3.org/1999/xlink">
<g id="graph0" class="graph" transform="scale(1 1) rotate(0) translate(4 728)">
<title>snakemake_dag</title>
<polygon fill="white" stroke="none" points="-4,4 -4,-728 1053.91,-728 1053.91,4 -4,4"/>
<!-- 1 -->
<g id="node1" class="node"><title>1</title>
<path fill="none" stroke="#56d88a" stroke-width="2" stroke-dasharray="5,2" d="M419.431,-638C419.431,-638 368.569,-638 368.569,-638 362.569,-638 356.569,-632 356.569,-626 356.569,-626 356.569,-614 356.569,-614 356.569,-608 362.569,-602 368.569,-602 368.569,-602 419.431,-602 419.431,-602 425.431,-602 431.431,-608 431.431,-614 431.431,-614 431.431,-626 431.431,-626 431.431,-632 425.431,-638 419.431,-638"/>
<text text-anchor="middle" x="394" y="-617" font-family="sans" font-size="10.00">bwa_index: 1</text>
</g>
<!-- 11 -->
<g id="node11" class="node"><title>11</title>
<path fill="none" stroke="#d88556" stroke-width="2" stroke-dasharray="5,2" d="M389.271,-552C389.271,-552 324.729,-552 324.729,-552 318.729,-552 312.729,-546 312.729,-540 312.729,-540 312.729,-528 312.729,-528 312.729,-522 318.729,-516 324.729,-516 324.729,-516 389.271,-516 389.271,-516 395.271,-516 401.271,-522 401.271,-528 401.271,-528 401.271,-540 401.271,-540 401.271,-546 395.271,-552 389.271,-552"/>
<text text-anchor="middle" x="357" y="-531" font-family="sans" font-size="10.00">map_reads: 375</text>
</g>
<!-- 1&#45;&gt;11 -->
<g id="edge1" class="edge"><title>1&#45;&gt;11</title>
<path fill="none" stroke="grey" stroke-width="2" stroke-dasharray="5,2" d="M386.334,-601.595C381.24,-590.03 374.454,-574.624 368.692,-561.543"/>
<polygon fill="grey" stroke="grey" stroke-width="2" points="371.764,-559.836 364.53,-552.095 365.358,-562.658 371.764,-559.836"/>
<text text-anchor="middle" x="388.5" y="-572.8" font-family="Times,serif" font-size="14.00">375</text>
</g>
<!-- 12 -->
<g id="node12" class="node"><title>12</title>
<path fill="none" stroke="#d88556" stroke-width="2" d="M603.648,-552C603.648,-552 550.352,-552 550.352,-552 544.352,-552 538.352,-546 538.352,-540 538.352,-540 538.352,-528 538.352,-528 538.352,-522 544.352,-516 550.352,-516 550.352,-516 603.648,-516 603.648,-516 609.648,-516 615.648,-522 615.648,-528 615.648,-528 615.648,-540 615.648,-540 615.648,-546 609.648,-552 603.648,-552"/>
<text text-anchor="middle" x="577" y="-531" font-family="sans" font-size="10.00">map_reads: 9</text>
</g>
<!-- 1&#45;&gt;12 -->
<g id="edge2" class="edge"><title>1&#45;&gt;12</title>
<path fill="none" stroke="grey" stroke-width="2" d="M431.474,-601.799C460.188,-588.619 499.961,-570.362 530.671,-556.266"/>
<polygon fill="grey" stroke="grey" stroke-width="2" points="532.261,-559.387 539.889,-552.035 529.34,-553.025 532.261,-559.387"/>
<text text-anchor="middle" x="500.5" y="-572.8" font-family="Times,serif" font-size="14.00">9</text>
</g>
<!-- 2 -->
<g id="node2" class="node"><title>2</title>
<path fill="none" stroke="#56d85b" stroke-width="2" stroke-dasharray="5,2" d="M225.508,-294C225.508,-294 134.492,-294 134.492,-294 128.492,-294 122.492,-288 122.492,-282 122.492,-282 122.492,-270 122.492,-270 122.492,-264 128.492,-258 134.492,-258 134.492,-258 225.508,-258 225.508,-258 231.508,-258 237.508,-264 237.508,-270 237.508,-270 237.508,-282 237.508,-282 237.508,-288 231.508,-294 225.508,-294"/>
<text text-anchor="middle" x="180" y="-273" font-family="sans" font-size="10.00">eca_call_variants: 375</text>
</g>
<!-- 7 -->
<g id="node7" class="node"><title>7</title>
<path fill="none" stroke="#56b1d8" stroke-width="2" d="M253.866,-208C253.866,-208 84.1337,-208 84.1337,-208 78.1337,-208 72.1337,-202 72.1337,-196 72.1337,-196 72.1337,-184 72.1337,-184 72.1337,-178 78.1337,-172 84.1337,-172 84.1337,-172 253.866,-172 253.866,-172 259.866,-172 265.866,-178 265.866,-184 265.866,-184 265.866,-196 265.866,-196 265.866,-202 259.866,-208 253.866,-208"/>
<text text-anchor="middle" x="169" y="-192" font-family="sans" font-size="10.00">genomics_db_import_chromosomes: 34</text>
<text text-anchor="middle" x="169" y="-182" font-family="sans" font-size="10.00">[chromo]</text>
</g>
<!-- 2&#45;&gt;7 -->
<g id="edge3" class="edge"><title>2&#45;&gt;7</title>
<path fill="none" stroke="grey" stroke-width="2" d="M177.721,-257.595C176.236,-246.257 174.268,-231.227 172.577,-218.315"/>
<polygon fill="grey" stroke="grey" stroke-width="2" points="176.008,-217.556 171.239,-208.095 169.067,-218.465 176.008,-217.556"/>
<text text-anchor="middle" x="193.5" y="-228.8" font-family="Times,serif" font-size="14.00">12750</text>
</g>
<!-- 8 -->
<g id="node8" class="node"><title>8</title>
<path fill="none" stroke="#56d89a" stroke-width="2" d="M473.994,-208C473.994,-208 296.006,-208 296.006,-208 290.006,-208 284.006,-202 284.006,-196 284.006,-196 284.006,-184 284.006,-184 284.006,-178 290.006,-172 296.006,-172 296.006,-172 473.994,-172 473.994,-172 479.994,-172 485.994,-178 485.994,-184 485.994,-184 485.994,-196 485.994,-196 485.994,-202 479.994,-208 473.994,-208"/>
<text text-anchor="middle" x="385" y="-192" font-family="sans" font-size="10.00">genomics_db_import_scaffold_groups: 14</text>
<text text-anchor="middle" x="385" y="-182" font-family="sans" font-size="10.00">[scaff_group]</text>
</g>
<!-- 2&#45;&gt;8 -->
<g id="edge4" class="edge"><title>2&#45;&gt;8</title>
<path fill="none" stroke="grey" stroke-width="2" d="M196.22,-257.646C207.08,-247.014 222.233,-233.962 238,-226 249.663,-220.11 262.352,-215.188 275.226,-211.079"/>
<polygon fill="grey" stroke="grey" stroke-width="2" points="276.536,-214.339 285.093,-208.093 274.508,-207.639 276.536,-214.339"/>
<text text-anchor="middle" x="252" y="-228.8" font-family="Times,serif" font-size="14.00">5250</text>
</g>
<!-- 3 -->
<g id="node3" class="node"><title>3</title>
<path fill="none" stroke="#56d85b" stroke-width="2" d="M392.384,-294C392.384,-294 311.616,-294 311.616,-294 305.616,-294 299.616,-288 299.616,-282 299.616,-282 299.616,-270 299.616,-270 299.616,-264 305.616,-258 311.616,-258 311.616,-258 392.384,-258 392.384,-258 398.384,-258 404.384,-264 404.384,-270 404.384,-270 404.384,-282 404.384,-282 404.384,-288 398.384,-294 392.384,-294"/>
<text text-anchor="middle" x="352" y="-273" font-family="sans" font-size="10.00">eca_call_variants: 9</text>
</g>
<!-- 3&#45;&gt;7 -->
<g id="edge5" class="edge"><title>3&#45;&gt;7</title>
<path fill="none" stroke="grey" stroke-width="2" d="M326.526,-257.925C310.703,-247.793 289.692,-235.177 270,-226 258.718,-220.742 246.415,-215.837 234.401,-211.461"/>
<polygon fill="grey" stroke="grey" stroke-width="2" points="235.447,-208.118 224.852,-208.068 233.103,-214.714 235.447,-208.118"/>
<text text-anchor="middle" x="306.5" y="-228.8" font-family="Times,serif" font-size="14.00">306</text>
</g>
<!-- 3&#45;&gt;8 -->
<g id="edge6" class="edge"><title>3&#45;&gt;8</title>
<path fill="none" stroke="grey" stroke-width="2" d="M358.838,-257.595C363.381,-246.03 369.433,-230.624 374.572,-217.543"/>
<polygon fill="grey" stroke="grey" stroke-width="2" points="377.885,-218.682 378.284,-208.095 371.37,-216.123 377.885,-218.682"/>
<text text-anchor="middle" x="381.5" y="-228.8" font-family="Times,serif" font-size="14.00">126</text>
</g>
<!-- 4 -->
<g id="node4" class="node"><title>4</title>
<path fill="none" stroke="#d8cb56" stroke-width="2" stroke-dasharray="5,2" d="M925.974,-380C925.974,-380 874.026,-380 874.026,-380 868.026,-380 862.026,-374 862.026,-368 862.026,-368 862.026,-356 862.026,-356 862.026,-350 868.026,-344 874.026,-344 874.026,-344 925.974,-344 925.974,-344 931.974,-344 937.974,-350 937.974,-356 937.974,-356 937.974,-368 937.974,-368 937.974,-374 931.974,-380 925.974,-380"/>
<text text-anchor="middle" x="900" y="-364" font-family="sans" font-size="10.00">fastqc: 378</text>
<text text-anchor="middle" x="900" y="-354" font-family="sans" font-size="10.00">[sample, unit]</text>
</g>
<!-- 15 -->
<g id="node15" class="node"><title>15</title>
<path fill="none" stroke="#5663d8" stroke-width="2" d="M717.022,-294C717.022,-294 600.978,-294 600.978,-294 594.978,-294 588.978,-288 588.978,-282 588.978,-282 588.978,-270 588.978,-270 588.978,-264 594.978,-258 600.978,-258 600.978,-258 717.022,-258 717.022,-258 723.022,-258 729.022,-264 729.022,-270 729.022,-270 729.022,-282 729.022,-282 729.022,-288 723.022,-294 717.022,-294"/>
<text text-anchor="middle" x="659" y="-273" font-family="sans" font-size="10.00">multiqc_and_index_bams: 1</text>
</g>
<!-- 4&#45;&gt;15 -->
<g id="edge7" class="edge"><title>4&#45;&gt;15</title>
<path fill="none" stroke="grey" stroke-width="2" d="M887.346,-343.802C878.414,-332.951 865.491,-319.597 851,-312 816.996,-294.173 775.476,-285.271 739.758,-280.885"/>
<polygon fill="grey" stroke="grey" stroke-width="2" points="739.691,-277.355 729.362,-279.713 738.908,-284.311 739.691,-277.355"/>
<text text-anchor="middle" x="879.5" y="-314.8" font-family="Times,serif" font-size="14.00">378</text>
</g>
<!-- 5 -->
<g id="node5" class="node"><title>5</title>
<path fill="none" stroke="#d8cb56" stroke-width="2" d="M788.974,-380C788.974,-380 737.026,-380 737.026,-380 731.026,-380 725.026,-374 725.026,-368 725.026,-368 725.026,-356 725.026,-356 725.026,-350 731.026,-344 737.026,-344 737.026,-344 788.974,-344 788.974,-344 794.974,-344 800.974,-350 800.974,-356 800.974,-356 800.974,-368 800.974,-368 800.974,-374 794.974,-380 788.974,-380"/>
<text text-anchor="middle" x="763" y="-364" font-family="sans" font-size="10.00">fastqc: 6</text>
<text text-anchor="middle" x="763" y="-354" font-family="sans" font-size="10.00">[sample, unit]</text>
</g>
<!-- 5&#45;&gt;15 -->
<g id="edge8" class="edge"><title>5&#45;&gt;15</title>
<path fill="none" stroke="grey" stroke-width="2" d="M741.703,-343.799C726.28,-331.342 705.243,-314.35 688.246,-300.621"/>
<polygon fill="grey" stroke="grey" stroke-width="2" points="690.247,-297.739 680.268,-294.178 685.849,-303.185 690.247,-297.739"/>
<text text-anchor="middle" x="720.5" y="-314.8" font-family="Times,serif" font-size="14.00">6</text>
</g>
<!-- 6 -->
<g id="node6" class="node"><title>6</title>
<path fill="none" stroke="#d8a456" stroke-width="2" stroke-dasharray="5,2" d="M138.38,-380C138.38,-380 77.6202,-380 77.6202,-380 71.6202,-380 65.6202,-374 65.6202,-368 65.6202,-368 65.6202,-356 65.6202,-356 65.6202,-350 71.6202,-344 77.6202,-344 77.6202,-344 138.38,-344 138.38,-344 144.38,-344 150.38,-350 150.38,-356 150.38,-356 150.38,-368 150.38,-368 150.38,-374 144.38,-380 138.38,-380"/>
<text text-anchor="middle" x="108" y="-359" font-family="sans" font-size="10.00">genome_dict: 1</text>
</g>
<!-- 6&#45;&gt;2 -->
<g id="edge9" class="edge"><title>6&#45;&gt;2</title>
<path fill="none" stroke="grey" stroke-width="2" stroke-dasharray="5,2" d="M105.477,-343.782C104.906,-333.721 105.841,-321.23 112,-312 114.964,-307.558 118.675,-303.648 122.826,-300.212"/>
<polygon fill="grey" stroke="grey" stroke-width="2" points="125.169,-302.839 131.267,-294.175 121.097,-297.145 125.169,-302.839"/>
<text text-anchor="middle" x="122.5" y="-314.8" font-family="Times,serif" font-size="14.00">375</text>
</g>
<!-- 6&#45;&gt;3 -->
<g id="edge10" class="edge"><title>6&#45;&gt;3</title>
<path fill="none" stroke="grey" stroke-width="2" d="M120.979,-343.795C130.121,-332.942 143.315,-319.587 158,-312 163.957,-308.922 235.348,-296.492 289.811,-287.316"/>
<polygon fill="grey" stroke="grey" stroke-width="2" points="290.483,-290.753 299.764,-285.644 289.323,-283.849 290.483,-290.753"/>
<text text-anchor="middle" x="161.5" y="-314.8" font-family="Times,serif" font-size="14.00">9</text>
</g>
<!-- 9 -->
<g id="node9" class="node"><title>9</title>
<path fill="none" stroke="#d89556" stroke-width="2" d="M341.8,-122C341.8,-122 212.2,-122 212.2,-122 206.2,-122 200.2,-116 200.2,-110 200.2,-110 200.2,-98 200.2,-98 200.2,-92 206.2,-86 212.2,-86 212.2,-86 341.8,-86 341.8,-86 347.8,-86 353.8,-92 353.8,-98 353.8,-98 353.8,-110 353.8,-110 353.8,-116 347.8,-122 341.8,-122"/>
<text text-anchor="middle" x="277" y="-106" font-family="sans" font-size="10.00">genomics_db2vcf: 48</text>
<text text-anchor="middle" x="277" y="-96" font-family="sans" font-size="10.00">[sg_or_chrom, type_of_subset]</text>
</g>
<!-- 7&#45;&gt;9 -->
<g id="edge11" class="edge"><title>7&#45;&gt;9</title>
<path fill="none" stroke="grey" stroke-width="2" d="M191.116,-171.799C207.132,-159.342 228.979,-142.35 246.63,-128.621"/>
<polygon fill="grey" stroke="grey" stroke-width="2" points="249.169,-131.081 254.914,-122.178 244.871,-125.555 249.169,-131.081"/>
<text text-anchor="middle" x="237" y="-142.8" font-family="Times,serif" font-size="14.00">34</text>
</g>
<!-- 8&#45;&gt;9 -->
<g id="edge12" class="edge"><title>8&#45;&gt;9</title>
<path fill="none" stroke="grey" stroke-width="2" d="M362.884,-171.799C346.868,-159.342 325.021,-142.35 307.37,-128.621"/>
<polygon fill="grey" stroke="grey" stroke-width="2" points="309.129,-125.555 299.086,-122.178 304.831,-131.081 309.129,-125.555"/>
<text text-anchor="middle" x="345" y="-142.8" font-family="Times,serif" font-size="14.00">14</text>
</g>
<!-- 22 -->
<g id="node22" class="node"><title>22</title>
<path fill="none" stroke="#78d856" stroke-width="2" d="M516,-36C516,-36 486,-36 486,-36 480,-36 474,-30 474,-24 474,-24 474,-12 474,-12 474,-6 480,-0 486,-0 486,-0 516,-0 516,-0 522,-0 528,-6 528,-12 528,-12 528,-24 528,-24 528,-30 522,-36 516,-36"/>
<text text-anchor="middle" x="501" y="-15" font-family="sans" font-size="10.00">all: 1</text>
</g>
<!-- 9&#45;&gt;22 -->
<g id="edge13" class="edge"><title>9&#45;&gt;22</title>
<path fill="none" stroke="grey" stroke-width="2" d="M322.6,-85.9001C364.286,-70.2679 425.179,-47.433 463.941,-32.897"/>
<polygon fill="grey" stroke="grey" stroke-width="2" points="465.639,-35.9985 473.773,-29.21 463.181,-29.4442 465.639,-35.9985"/>
<text text-anchor="middle" x="410" y="-56.8" font-family="Times,serif" font-size="14.00">48</text>
</g>
<!-- 10 -->
<g id="node10" class="node"><title>10</title>
<path fill="none" stroke="#56d8c9" stroke-width="2" stroke-dasharray="5,2" d="M137.219,-724C137.219,-724 78.7808,-724 78.7808,-724 72.7808,-724 66.7808,-718 66.7808,-712 66.7808,-712 66.7808,-700 66.7808,-700 66.7808,-694 72.7808,-688 78.7808,-688 78.7808,-688 137.219,-688 137.219,-688 143.219,-688 149.219,-694 149.219,-700 149.219,-700 149.219,-712 149.219,-712 149.219,-718 143.219,-724 137.219,-724"/>
<text text-anchor="middle" x="108" y="-703" font-family="sans" font-size="10.00">get_genome: 1</text>
</g>
<!-- 10&#45;&gt;1 -->
<g id="edge14" class="edge"><title>10&#45;&gt;1</title>
<path fill="none" stroke="grey" stroke-width="2" stroke-dasharray="5,2" d="M149.297,-694.414C195.196,-682.429 271.667,-661.812 346.75,-637.963"/>
<polygon fill="grey" stroke="grey" stroke-width="2" points="347.915,-641.265 356.374,-634.886 345.783,-634.598 347.915,-641.265"/>
<text text-anchor="middle" x="285.5" y="-658.8" font-family="Times,serif" font-size="14.00">1</text>
</g>
<!-- 10&#45;&gt;2 -->
<g id="edge15" class="edge"><title>10&#45;&gt;2</title>
<path fill="none" stroke="grey" stroke-width="2" stroke-dasharray="5,2" d="M81.1364,-687.765C61.396,-672.781 38,-649.095 38,-621 38,-621 38,-621 38,-361 38,-323.137 75.8607,-301.979 112.483,-290.37"/>
<polygon fill="grey" stroke="grey" stroke-width="2" points="113.648,-293.676 122.243,-287.482 111.661,-286.964 113.648,-293.676"/>
<text text-anchor="middle" x="48.5" y="-486.8" font-family="Times,serif" font-size="14.00">375</text>
</g>
<!-- 10&#45;&gt;3 -->
<g id="edge16" class="edge"><title>10&#45;&gt;3</title>
<path fill="none" stroke="grey" stroke-width="2" d="M134.864,-687.765C154.604,-672.781 178,-649.095 178,-621 178,-621 178,-621 178,-361 178,-327.928 205.034,-327.959 234,-312 251.134,-302.56 271.103,-295.396 289.689,-290.087"/>
<polygon fill="grey" stroke="grey" stroke-width="2" points="290.822,-293.406 299.551,-287.402 288.983,-286.652 290.822,-293.406"/>
<text text-anchor="middle" x="181.5" y="-486.8" font-family="Times,serif" font-size="14.00">9</text>
</g>
<!-- 10&#45;&gt;6 -->
<g id="edge17" class="edge"><title>10&#45;&gt;6</title>
<path fill="none" stroke="grey" stroke-width="2" stroke-dasharray="5,2" d="M108,-687.947C108,-670.975 108,-644.188 108,-621 108,-621 108,-621 108,-447 108,-427.979 108,-406.535 108,-390.075"/>
<polygon fill="grey" stroke="grey" stroke-width="2" points="111.5,-390.053 108,-380.053 104.5,-390.053 111.5,-390.053"/>
<text text-anchor="middle" x="111.5" y="-529.8" font-family="Times,serif" font-size="14.00">1</text>
</g>
<!-- 10&#45;&gt;9 -->
<g id="edge18" class="edge"><title>10&#45;&gt;9</title>
<path fill="none" stroke="grey" stroke-width="2" d="M66.5533,-691.534C36.0967,-678.738 0,-656.155 0,-621 0,-621 0,-621 0,-189 0,-148.7 108.731,-125.925 189.949,-114.534"/>
<polygon fill="grey" stroke="grey" stroke-width="2" points="190.773,-117.955 200.208,-113.135 189.827,-111.019 190.773,-117.955"/>
<text text-anchor="middle" x="7" y="-400.8" font-family="Times,serif" font-size="14.00">48</text>
</g>
<!-- 13 -->
<g id="node13" class="node"><title>13</title>
<path fill="none" stroke="#d85656" stroke-width="2" stroke-dasharray="5,2" d="M400.554,-466C400.554,-466 313.446,-466 313.446,-466 307.446,-466 301.446,-460 301.446,-454 301.446,-454 301.446,-442 301.446,-442 301.446,-436 307.446,-430 313.446,-430 313.446,-430 400.554,-430 400.554,-430 406.554,-430 412.554,-436 412.554,-442 412.554,-442 412.554,-454 412.554,-454 412.554,-460 406.554,-466 400.554,-466"/>
<text text-anchor="middle" x="357" y="-445" font-family="sans" font-size="10.00">mark_duplicates: 375</text>
</g>
<!-- 11&#45;&gt;13 -->
<g id="edge19" class="edge"><title>11&#45;&gt;13</title>
<path fill="none" stroke="grey" stroke-width="2" stroke-dasharray="5,2" d="M357,-515.595C357,-504.257 357,-489.227 357,-476.315"/>
<polygon fill="grey" stroke="grey" stroke-width="2" points="360.5,-476.095 357,-466.095 353.5,-476.095 360.5,-476.095"/>
<text text-anchor="middle" x="367.5" y="-486.8" font-family="Times,serif" font-size="14.00">375</text>
</g>
<!-- 14 -->
<g id="node14" class="node"><title>14</title>
<path fill="none" stroke="#d85656" stroke-width="2" d="M696.931,-466C696.931,-466 621.069,-466 621.069,-466 615.069,-466 609.069,-460 609.069,-454 609.069,-454 609.069,-442 609.069,-442 609.069,-436 615.069,-430 621.069,-430 621.069,-430 696.931,-430 696.931,-430 702.931,-430 708.931,-436 708.931,-442 708.931,-442 708.931,-454 708.931,-454 708.931,-460 702.931,-466 696.931,-466"/>
<text text-anchor="middle" x="659" y="-445" font-family="sans" font-size="10.00">mark_duplicates: 9</text>
</g>
<!-- 12&#45;&gt;14 -->
<g id="edge20" class="edge"><title>12&#45;&gt;14</title>
<path fill="none" stroke="grey" stroke-width="2" d="M593.99,-515.595C605.944,-503.35 622.101,-486.799 635.318,-473.26"/>
<polygon fill="grey" stroke="grey" stroke-width="2" points="637.831,-475.696 642.312,-466.095 632.822,-470.806 637.831,-475.696"/>
<text text-anchor="middle" x="626.5" y="-486.8" font-family="Times,serif" font-size="14.00">9</text>
</g>
<!-- 13&#45;&gt;2 -->
<g id="edge21" class="edge"><title>13&#45;&gt;2</title>
<path fill="none" stroke="grey" stroke-width="2" stroke-dasharray="5,2" d="M310.543,-429.882C285.197,-418.726 254.666,-402.107 233,-380 211.76,-358.328 197.146,-326.42 188.725,-303.872"/>
<polygon fill="grey" stroke="grey" stroke-width="2" points="191.947,-302.484 185.291,-294.241 185.353,-304.836 191.947,-302.484"/>
<text text-anchor="middle" x="243.5" y="-357.8" font-family="Times,serif" font-size="14.00">375</text>
</g>
<!-- 13&#45;&gt;15 -->
<g id="edge22" class="edge"><title>13&#45;&gt;15</title>
<path fill="none" stroke="grey" stroke-width="2" d="M362.289,-429.624C370.203,-406.579 387.343,-366.233 416,-344 462.678,-307.786 527.701,-291.135 578.741,-283.484"/>
<polygon fill="grey" stroke="grey" stroke-width="2" points="579.34,-286.934 588.753,-282.071 578.362,-280.003 579.34,-286.934"/>
<text text-anchor="middle" x="426.5" y="-357.8" font-family="Times,serif" font-size="14.00">375</text>
</g>
<!-- 16 -->
<g id="node16" class="node"><title>16</title>
<path fill="none" stroke="#56d86b" stroke-width="2" stroke-dasharray="5,2" d="M358.724,-380C358.724,-380 275.276,-380 275.276,-380 269.276,-380 263.276,-374 263.276,-368 263.276,-368 263.276,-356 263.276,-356 263.276,-350 269.276,-344 275.276,-344 275.276,-344 358.724,-344 358.724,-344 364.724,-344 370.724,-350 370.724,-356 370.724,-356 370.724,-368 370.724,-368 370.724,-374 364.724,-380 358.724,-380"/>
<text text-anchor="middle" x="317" y="-364" font-family="sans" font-size="10.00">samtools_index: 375</text>
<text text-anchor="middle" x="317" y="-354" font-family="sans" font-size="10.00">[prefix]</text>
</g>
<!-- 13&#45;&gt;16 -->
<g id="edge23" class="edge"><title>13&#45;&gt;16</title>
<path fill="none" stroke="grey" stroke-width="2" stroke-dasharray="5,2" d="M348.712,-429.595C343.151,-417.917 335.725,-402.322 329.457,-389.159"/>
<polygon fill="grey" stroke="grey" stroke-width="2" points="332.6,-387.619 325.141,-380.095 326.28,-390.629 332.6,-387.619"/>
<text text-anchor="middle" x="350.5" y="-400.8" font-family="Times,serif" font-size="14.00">375</text>
</g>
<!-- 18 -->
<g id="node18" class="node"><title>18</title>
<path fill="none" stroke="#56d87b" stroke-width="2" stroke-dasharray="5,2" d="M538.436,-380C538.436,-380 457.564,-380 457.564,-380 451.564,-380 445.564,-374 445.564,-368 445.564,-368 445.564,-356 445.564,-356 445.564,-350 451.564,-344 457.564,-344 457.564,-344 538.436,-344 538.436,-344 544.436,-344 550.436,-350 550.436,-356 550.436,-356 550.436,-368 550.436,-368 550.436,-374 544.436,-380 538.436,-380"/>
<text text-anchor="middle" x="498" y="-359" font-family="sans" font-size="10.00">samtools_stats: 375</text>
</g>
<!-- 13&#45;&gt;18 -->
<g id="edge24" class="edge"><title>13&#45;&gt;18</title>
<path fill="none" stroke="grey" stroke-width="2" stroke-dasharray="5,2" d="M389.137,-429.965C399.399,-424.382 410.751,-418.055 421,-412 434.967,-403.749 450.077,-394.261 463.182,-385.845"/>
<polygon fill="grey" stroke="grey" stroke-width="2" points="465.394,-388.583 471.896,-380.218 461.597,-382.703 465.394,-388.583"/>
<text text-anchor="middle" x="453.5" y="-400.8" font-family="Times,serif" font-size="14.00">375</text>
</g>
<!-- 14&#45;&gt;3 -->
<g id="edge25" class="edge"><title>14&#45;&gt;3</title>
<path fill="none" stroke="grey" stroke-width="2" d="M638.37,-429.794C624.452,-417.237 606.579,-399.128 595,-380 578.479,-352.707 596.377,-332.583 572,-312 548.771,-292.387 471.101,-283.663 414.618,-279.851"/>
<polygon fill="grey" stroke="grey" stroke-width="2" points="414.538,-276.339 404.335,-279.195 414.092,-283.325 414.538,-276.339"/>
<text text-anchor="middle" x="598.5" y="-357.8" font-family="Times,serif" font-size="14.00">9</text>
</g>
<!-- 14&#45;&gt;15 -->
<g id="edge26" class="edge"><title>14&#45;&gt;15</title>
<path fill="none" stroke="grey" stroke-width="2" d="M708.954,-439.285C743.767,-431.022 787.798,-414.141 810,-380 834.734,-341.966 784.746,-314.289 735.782,-297.264"/>
<polygon fill="grey" stroke="grey" stroke-width="2" points="736.619,-293.853 726.025,-294.001 734.399,-300.492 736.619,-293.853"/>
<text text-anchor="middle" x="819.5" y="-357.8" font-family="Times,serif" font-size="14.00">9</text>
</g>
<!-- 17 -->
<g id="node17" class="node"><title>17</title>
<path fill="none" stroke="#56d86b" stroke-width="2" d="M695.101,-380C695.101,-380 622.899,-380 622.899,-380 616.899,-380 610.899,-374 610.899,-368 610.899,-368 610.899,-356 610.899,-356 610.899,-350 616.899,-344 622.899,-344 622.899,-344 695.101,-344 695.101,-344 701.101,-344 707.101,-350 707.101,-356 707.101,-356 707.101,-368 707.101,-368 707.101,-374 701.101,-380 695.101,-380"/>
<text text-anchor="middle" x="659" y="-364" font-family="sans" font-size="10.00">samtools_index: 9</text>
<text text-anchor="middle" x="659" y="-354" font-family="sans" font-size="10.00">[prefix]</text>
</g>
<!-- 14&#45;&gt;17 -->
<g id="edge27" class="edge"><title>14&#45;&gt;17</title>
<path fill="none" stroke="grey" stroke-width="2" d="M659,-429.595C659,-418.257 659,-403.227 659,-390.315"/>
<polygon fill="grey" stroke="grey" stroke-width="2" points="662.5,-390.095 659,-380.095 655.5,-390.095 662.5,-390.095"/>
<text text-anchor="middle" x="662.5" y="-400.8" font-family="Times,serif" font-size="14.00">9</text>
</g>
<!-- 19 -->
<g id="node19" class="node"><title>19</title>
<path fill="none" stroke="#56d87b" stroke-width="2" d="M1037.81,-380C1037.81,-380 968.187,-380 968.187,-380 962.187,-380 956.187,-374 956.187,-368 956.187,-368 956.187,-356 956.187,-356 956.187,-350 962.187,-344 968.187,-344 968.187,-344 1037.81,-344 1037.81,-344 1043.81,-344 1049.81,-350 1049.81,-356 1049.81,-356 1049.81,-368 1049.81,-368 1049.81,-374 1043.81,-380 1037.81,-380"/>
<text text-anchor="middle" x="1003" y="-359" font-family="sans" font-size="10.00">samtools_stats: 9</text>
</g>
<!-- 14&#45;&gt;19 -->
<g id="edge28" class="edge"><title>14&#45;&gt;19</title>
<path fill="none" stroke="grey" stroke-width="2" d="M709.112,-439.716C748.082,-433.607 803.35,-423.968 851,-412 882.873,-403.995 917.814,-392.898 946.151,-383.289"/>
<polygon fill="grey" stroke="grey" stroke-width="2" points="947.554,-386.509 955.883,-379.96 945.289,-379.885 947.554,-386.509"/>
<text text-anchor="middle" x="900.5" y="-400.8" font-family="Times,serif" font-size="14.00">9</text>
</g>
<!-- 15&#45;&gt;22 -->
<g id="edge29" class="edge"><title>15&#45;&gt;22</title>
<path fill="none" stroke="grey" stroke-width="2" d="M648.388,-257.806C621.235,-213.811 549.117,-96.9622 516.916,-44.7881"/>
<polygon fill="grey" stroke="grey" stroke-width="2" points="519.797,-42.791 511.566,-36.1196 513.84,-46.4675 519.797,-42.791"/>
<text text-anchor="middle" x="587.5" y="-142.8" font-family="Times,serif" font-size="14.00">1</text>
</g>
<!-- 16&#45;&gt;2 -->
<g id="edge30" class="edge"><title>16&#45;&gt;2</title>
<path fill="none" stroke="grey" stroke-width="2" stroke-dasharray="5,2" d="M289.63,-343.91C274.447,-334.458 255.209,-322.529 238,-312 231.228,-307.857 223.995,-303.465 217.015,-299.244"/>
<polygon fill="grey" stroke="grey" stroke-width="2" points="218.732,-296.193 208.362,-294.021 215.114,-302.185 218.732,-296.193"/>
<text text-anchor="middle" x="270.5" y="-314.8" font-family="Times,serif" font-size="14.00">375</text>
</g>
<!-- 16&#45;&gt;15 -->
<g id="edge31" class="edge"><title>16&#45;&gt;15</title>
<path fill="none" stroke="grey" stroke-width="2" d="M331.034,-343.999C341.193,-332.94 355.919,-319.27 372,-312 407.748,-295.84 506.842,-286.365 578.597,-281.437"/>
<polygon fill="grey" stroke="grey" stroke-width="2" points="579.231,-284.903 588.975,-280.743 578.763,-277.918 579.231,-284.903"/>
<text text-anchor="middle" x="382.5" y="-314.8" font-family="Times,serif" font-size="14.00">375</text>
</g>
<!-- 17&#45;&gt;3 -->
<g id="edge32" class="edge"><title>17&#45;&gt;3</title>
<path fill="none" stroke="grey" stroke-width="2" d="M643.178,-343.624C632.176,-332.699 616.559,-319.328 600,-312 540.729,-285.77 466.399,-278.22 414.642,-276.489"/>
<polygon fill="grey" stroke="grey" stroke-width="2" points="414.695,-272.989 404.603,-276.216 414.505,-279.986 414.695,-272.989"/>
<text text-anchor="middle" x="625.5" y="-314.8" font-family="Times,serif" font-size="14.00">9</text>
</g>
<!-- 17&#45;&gt;15 -->
<g id="edge33" class="edge"><title>17&#45;&gt;15</title>
<path fill="none" stroke="grey" stroke-width="2" d="M659,-343.595C659,-332.257 659,-317.227 659,-304.315"/>
<polygon fill="grey" stroke="grey" stroke-width="2" points="662.5,-304.095 659,-294.095 655.5,-304.095 662.5,-304.095"/>
<text text-anchor="middle" x="662.5" y="-314.8" font-family="Times,serif" font-size="14.00">9</text>
</g>
<!-- 18&#45;&gt;15 -->
<g id="edge34" class="edge"><title>18&#45;&gt;15</title>
<path fill="none" stroke="grey" stroke-width="2" d="M525.233,-343.883C541.227,-334.094 561.977,-321.844 581,-312 589.997,-307.344 599.74,-302.683 609.193,-298.351"/>
<polygon fill="grey" stroke="grey" stroke-width="2" points="610.839,-301.448 618.511,-294.14 607.956,-295.069 610.839,-301.448"/>
<text text-anchor="middle" x="591.5" y="-314.8" font-family="Times,serif" font-size="14.00">375</text>
</g>
<!-- 19&#45;&gt;15 -->
<g id="edge35" class="edge"><title>19&#45;&gt;15</title>
<path fill="none" stroke="grey" stroke-width="2" d="M970.98,-343.789C949.72,-333.075 920.878,-319.879 894,-312 843.676,-297.248 785.378,-288.516 739.437,-283.463"/>
<polygon fill="grey" stroke="grey" stroke-width="2" points="739.548,-279.955 729.234,-282.379 738.808,-286.916 739.548,-279.955"/>
<text text-anchor="middle" x="934.5" y="-314.8" font-family="Times,serif" font-size="14.00">9</text>
</g>
<!-- 20 -->
<g id="node20" class="node"><title>20</title>
<path fill="none" stroke="#d86656" stroke-width="2" stroke-dasharray="5,2" d="M326.162,-638C326.162,-638 247.838,-638 247.838,-638 241.838,-638 235.838,-632 235.838,-626 235.838,-626 235.838,-614 235.838,-614 235.838,-608 241.838,-602 247.838,-602 247.838,-602 326.162,-602 326.162,-602 332.162,-602 338.162,-608 338.162,-614 338.162,-614 338.162,-626 338.162,-626 338.162,-632 332.162,-638 326.162,-638"/>
<text text-anchor="middle" x="287" y="-622" font-family="sans" font-size="10.00">trim_reads_pe: 375</text>
<text text-anchor="middle" x="287" y="-612" font-family="sans" font-size="10.00">[sample, unit]</text>
</g>
<!-- 20&#45;&gt;11 -->
<g id="edge36" class="edge"><title>20&#45;&gt;11</title>
<path fill="none" stroke="grey" stroke-width="2" stroke-dasharray="5,2" d="M301.504,-601.595C311.519,-589.577 324.991,-573.41 336.154,-560.015"/>
<polygon fill="grey" stroke="grey" stroke-width="2" points="339.041,-562.018 342.754,-552.095 333.663,-557.537 339.041,-562.018"/>
<text text-anchor="middle" x="337.5" y="-572.8" font-family="Times,serif" font-size="14.00">375</text>
</g>
<!-- 21 -->
<g id="node21" class="node"><title>21</title>
<path fill="none" stroke="#d86656" stroke-width="2" d="M610.539,-638C610.539,-638 543.461,-638 543.461,-638 537.461,-638 531.461,-632 531.461,-626 531.461,-626 531.461,-614 531.461,-614 531.461,-608 537.461,-602 543.461,-602 543.461,-602 610.539,-602 610.539,-602 616.539,-602 622.539,-608 622.539,-614 622.539,-614 622.539,-626 622.539,-626 622.539,-632 616.539,-638 610.539,-638"/>
<text text-anchor="middle" x="577" y="-622" font-family="sans" font-size="10.00">trim_reads_pe: 9</text>
<text text-anchor="middle" x="577" y="-612" font-family="sans" font-size="10.00">[sample, unit]</text>
</g>
<!-- 21&#45;&gt;12 -->
<g id="edge37" class="edge"><title>21&#45;&gt;12</title>
<path fill="none" stroke="grey" stroke-width="2" d="M577,-601.595C577,-590.257 577,-575.227 577,-562.315"/>
<polygon fill="grey" stroke="grey" stroke-width="2" points="580.5,-562.095 577,-552.095 573.5,-562.095 580.5,-562.095"/>
<text text-anchor="middle" x="580.5" y="-572.8" font-family="Times,serif" font-size="14.00">9</text>
</g>
</g>
</svg>
