<?xml version="1.0" encoding="UTF-8" standalone="no"?>
<!DOCTYPE svg PUBLIC "-//W3C//DTD SVG 1.1//EN"
 "http://www.w3.org/Graphics/SVG/1.1/DTD/svg11.dtd">
<!-- Generated by graphviz version 2.38.0 (20140413.2041)
 -->
<!-- Title: snakemake_dag Pages: 1 -->
<svg width="698pt" height="474pt"
 viewBox="0.00 0.00 698.46 474.00" xmlns="http://www.w3.org/2000/svg" xmlns:xlink="http://www.w3.org/1999/xlink">
<g id="graph0" class="graph" transform="scale(1 1) rotate(0) translate(4 470)">
<title>snakemake_dag</title>
<polygon fill="white" stroke="none" points="-4,4 -4,-470 694.46,-470 694.46,4 -4,4"/>
<!-- 1 -->
<g id="node1" class="node"><title>1</title>
<path fill="none" stroke="#d8b456" stroke-width="2" stroke-dasharray="5,2" d="M466.891,-380C466.891,-380 416.03,-380 416.03,-380 410.03,-380 404.03,-374 404.03,-368 404.03,-368 404.03,-356 404.03,-356 404.03,-350 410.03,-344 416.03,-344 416.03,-344 466.891,-344 466.891,-344 472.891,-344 478.891,-350 478.891,-356 478.891,-356 478.891,-368 478.891,-368 478.891,-374 472.891,-380 466.891,-380"/>
<text text-anchor="middle" x="441.46" y="-359" font-family="sans" font-size="10.00">bwa_index: 1</text>
</g>
<!-- 5 -->
<g id="node5" class="node"><title>5</title>
<path fill="none" stroke="#56d8a9" stroke-width="2" stroke-dasharray="5,2" d="M619.731,-294C619.731,-294 555.19,-294 555.19,-294 549.19,-294 543.19,-288 543.19,-282 543.19,-282 543.19,-270 543.19,-270 543.19,-264 549.19,-258 555.19,-258 555.19,-258 619.731,-258 619.731,-258 625.731,-258 631.731,-264 631.731,-270 631.731,-270 631.731,-282 631.731,-282 631.731,-288 625.731,-294 619.731,-294"/>
<text text-anchor="middle" x="587.46" y="-273" font-family="sans" font-size="10.00">map_reads: 375</text>
</g>
<!-- 1&#45;&gt;5 -->
<g id="edge1" class="edge"><title>1&#45;&gt;5</title>
<path fill="none" stroke="grey" stroke-width="2" stroke-dasharray="5,2" d="M471.358,-343.799C493.773,-330.903 524.634,-313.147 548.905,-299.183"/>
<polygon fill="grey" stroke="grey" stroke-width="2" points="550.93,-302.055 557.853,-294.035 547.439,-295.988 550.93,-302.055"/>
<text text-anchor="middle" x="532.96" y="-314.8" font-family="Times,serif" font-size="14.00">375</text>
</g>
<!-- 6 -->
<g id="node6" class="node"><title>6</title>
<path fill="none" stroke="#56d8a9" stroke-width="2" d="M348.108,-294C348.108,-294 294.813,-294 294.813,-294 288.813,-294 282.813,-288 282.813,-282 282.813,-282 282.813,-270 282.813,-270 282.813,-264 288.813,-258 294.813,-258 294.813,-258 348.108,-258 348.108,-258 354.108,-258 360.108,-264 360.108,-270 360.108,-270 360.108,-282 360.108,-282 360.108,-288 354.108,-294 348.108,-294"/>
<text text-anchor="middle" x="321.46" y="-273" font-family="sans" font-size="10.00">map_reads: 9</text>
</g>
<!-- 1&#45;&gt;6 -->
<g id="edge2" class="edge"><title>1&#45;&gt;6</title>
<path fill="none" stroke="grey" stroke-width="2" d="M416.887,-343.799C398.848,-331.172 374.154,-313.886 354.406,-300.062"/>
<polygon fill="grey" stroke="grey" stroke-width="2" points="356.2,-297.046 346.001,-294.178 352.186,-302.78 356.2,-297.046"/>
<text text-anchor="middle" x="392.96" y="-314.8" font-family="Times,serif" font-size="14.00">9</text>
</g>
<!-- 2 -->
<g id="node2" class="node"><title>2</title>
<path fill="none" stroke="#56d863" stroke-width="2" stroke-dasharray="5,2" d="M52.8814,-122C52.8814,-122 12.0395,-122 12.0395,-122 6.0395,-122 0.0395027,-116 0.0395027,-110 0.0395027,-110 0.0395027,-98 0.0395027,-98 0.0395027,-92 6.0395,-86 12.0395,-86 12.0395,-86 52.8814,-86 52.8814,-86 58.8814,-86 64.8814,-92 64.8814,-98 64.8814,-98 64.8814,-110 64.8814,-110 64.8814,-116 58.8814,-122 52.8814,-122"/>
<text text-anchor="middle" x="32.4604" y="-101" font-family="sans" font-size="10.00">fastqc: 378</text>
</g>
<!-- 15 -->
<g id="node15" class="node"><title>15</title>
<path fill="none" stroke="#c6d856" stroke-width="2" d="M429.483,-36C429.483,-36 313.438,-36 313.438,-36 307.438,-36 301.438,-30 301.438,-24 301.438,-24 301.438,-12 301.438,-12 301.438,-6 307.438,-0 313.438,-0 313.438,-0 429.483,-0 429.483,-0 435.483,-0 441.483,-6 441.483,-12 441.483,-12 441.483,-24 441.483,-24 441.483,-30 435.483,-36 429.483,-36"/>
<text text-anchor="middle" x="371.46" y="-15" font-family="sans" font-size="10.00">multiqc_and_index_bams: 9</text>
</g>
<!-- 2&#45;&gt;15 -->
<g id="edge3" class="edge"><title>2&#45;&gt;15</title>
<path fill="none" stroke="grey" stroke-width="2" d="M65.0314,-89.188C67.8699,-88.0777 70.7083,-87 73.4604,-86 118.116,-69.7739 129.314,-65.3101 175.46,-54 213.206,-44.7489 255.601,-36.8728 291.282,-30.9484"/>
<polygon fill="grey" stroke="grey" stroke-width="2" points="291.856,-34.4011 301.159,-29.3296 290.724,-27.4932 291.856,-34.4011"/>
<text text-anchor="middle" x="185.96" y="-56.8" font-family="Times,serif" font-size="14.00">378</text>
</g>
<!-- 3 -->
<g id="node3" class="node"><title>3</title>
<path fill="none" stroke="#56d863" stroke-width="2" d="M124.46,-122C124.46,-122 94.4604,-122 94.4604,-122 88.4604,-122 82.4604,-116 82.4604,-110 82.4604,-110 82.4604,-98 82.4604,-98 82.4604,-92 88.4604,-86 94.4604,-86 94.4604,-86 124.46,-86 124.46,-86 130.46,-86 136.46,-92 136.46,-98 136.46,-98 136.46,-110 136.46,-110 136.46,-116 130.46,-122 124.46,-122"/>
<text text-anchor="middle" x="109.46" y="-101" font-family="sans" font-size="10.00">fastqc: 6</text>
</g>
<!-- 3&#45;&gt;15 -->
<g id="edge4" class="edge"><title>3&#45;&gt;15</title>
<path fill="none" stroke="grey" stroke-width="2" d="M136.79,-89.5656C139.691,-88.2987 142.619,-87.0847 145.46,-86 194.156,-67.4094 250.34,-50.7327 294.506,-38.6673"/>
<polygon fill="grey" stroke="grey" stroke-width="2" points="295.576,-42.0037 304.313,-36.01 293.745,-35.2473 295.576,-42.0037"/>
<text text-anchor="middle" x="240.96" y="-56.8" font-family="Times,serif" font-size="14.00">6</text>
</g>
<!-- 4 -->
<g id="node4" class="node"><title>4</title>
<path fill="none" stroke="#a7d856" stroke-width="2" stroke-dasharray="5,2" d="M470.68,-466C470.68,-466 412.241,-466 412.241,-466 406.241,-466 400.241,-460 400.241,-454 400.241,-454 400.241,-442 400.241,-442 400.241,-436 406.241,-430 412.241,-430 412.241,-430 470.68,-430 470.68,-430 476.68,-430 482.68,-436 482.68,-442 482.68,-442 482.68,-454 482.68,-454 482.68,-460 476.68,-466 470.68,-466"/>
<text text-anchor="middle" x="441.46" y="-445" font-family="sans" font-size="10.00">get_genome: 1</text>
</g>
<!-- 4&#45;&gt;1 -->
<g id="edge5" class="edge"><title>4&#45;&gt;1</title>
<path fill="none" stroke="grey" stroke-width="2" stroke-dasharray="5,2" d="M441.46,-429.595C441.46,-418.257 441.46,-403.227 441.46,-390.315"/>
<polygon fill="grey" stroke="grey" stroke-width="2" points="444.961,-390.095 441.46,-380.095 437.961,-390.095 444.961,-390.095"/>
<text text-anchor="middle" x="444.96" y="-400.8" font-family="Times,serif" font-size="14.00">1</text>
</g>
<!-- 7 -->
<g id="node7" class="node"><title>7</title>
<path fill="none" stroke="#78d856" stroke-width="2" stroke-dasharray="5,2" d="M643.014,-208C643.014,-208 555.907,-208 555.907,-208 549.907,-208 543.907,-202 543.907,-196 543.907,-196 543.907,-184 543.907,-184 543.907,-178 549.907,-172 555.907,-172 555.907,-172 643.014,-172 643.014,-172 649.014,-172 655.014,-178 655.014,-184 655.014,-184 655.014,-196 655.014,-196 655.014,-202 649.014,-208 643.014,-208"/>
<text text-anchor="middle" x="599.46" y="-187" font-family="sans" font-size="10.00">mark_duplicates: 375</text>
</g>
<!-- 5&#45;&gt;7 -->
<g id="edge6" class="edge"><title>5&#45;&gt;7</title>
<path fill="none" stroke="grey" stroke-width="2" stroke-dasharray="5,2" d="M589.947,-257.595C591.567,-246.257 593.714,-231.227 595.558,-218.315"/>
<polygon fill="grey" stroke="grey" stroke-width="2" points="599.069,-218.49 597.018,-208.095 592.139,-217.5 599.069,-218.49"/>
<text text-anchor="middle" x="603.96" y="-228.8" font-family="Times,serif" font-size="14.00">375</text>
</g>
<!-- 8 -->
<g id="node8" class="node"><title>8</title>
<path fill="none" stroke="#78d856" stroke-width="2" d="M353.391,-208C353.391,-208 277.53,-208 277.53,-208 271.53,-208 265.53,-202 265.53,-196 265.53,-196 265.53,-184 265.53,-184 265.53,-178 271.53,-172 277.53,-172 277.53,-172 353.391,-172 353.391,-172 359.391,-172 365.391,-178 365.391,-184 365.391,-184 365.391,-196 365.391,-196 365.391,-202 359.391,-208 353.391,-208"/>
<text text-anchor="middle" x="315.46" y="-187" font-family="sans" font-size="10.00">mark_duplicates: 9</text>
</g>
<!-- 6&#45;&gt;8 -->
<g id="edge7" class="edge"><title>6&#45;&gt;8</title>
<path fill="none" stroke="grey" stroke-width="2" d="M320.217,-257.595C319.407,-246.257 318.334,-231.227 317.412,-218.315"/>
<polygon fill="grey" stroke="grey" stroke-width="2" points="320.885,-217.82 316.682,-208.095 313.903,-218.319 320.885,-217.82"/>
<text text-anchor="middle" x="322.96" y="-228.8" font-family="Times,serif" font-size="14.00">9</text>
</g>
<!-- 9 -->
<g id="node9" class="node"><title>9</title>
<path fill="none" stroke="#68d856" stroke-width="2" stroke-dasharray="5,2" d="M519.184,-122C519.184,-122 435.736,-122 435.736,-122 429.736,-122 423.736,-116 423.736,-110 423.736,-110 423.736,-98 423.736,-98 423.736,-92 429.736,-86 435.736,-86 435.736,-86 519.184,-86 519.184,-86 525.184,-86 531.184,-92 531.184,-98 531.184,-98 531.184,-110 531.184,-110 531.184,-116 525.184,-122 519.184,-122"/>
<text text-anchor="middle" x="477.46" y="-101" font-family="sans" font-size="10.00">samtools_index: 375</text>
</g>
<!-- 7&#45;&gt;9 -->
<g id="edge9" class="edge"><title>7&#45;&gt;9</title>
<path fill="none" stroke="grey" stroke-width="2" stroke-dasharray="5,2" d="M574.478,-171.799C556.056,-159.115 530.807,-141.73 510.685,-127.876"/>
<polygon fill="grey" stroke="grey" stroke-width="2" points="512.631,-124.967 502.41,-122.178 508.662,-130.732 512.631,-124.967"/>
<text text-anchor="middle" x="555.96" y="-142.8" font-family="Times,serif" font-size="14.00">375</text>
</g>
<!-- 11 -->
<g id="node11" class="node"><title>11</title>
<path fill="none" stroke="#56d87b" stroke-width="2" stroke-dasharray="5,2" d="M641.896,-122C641.896,-122 561.025,-122 561.025,-122 555.025,-122 549.025,-116 549.025,-110 549.025,-110 549.025,-98 549.025,-98 549.025,-92 555.025,-86 561.025,-86 561.025,-86 641.896,-86 641.896,-86 647.896,-86 653.896,-92 653.896,-98 653.896,-98 653.896,-110 653.896,-110 653.896,-116 647.896,-122 641.896,-122"/>
<text text-anchor="middle" x="601.46" y="-101" font-family="sans" font-size="10.00">samtools_stats: 375</text>
</g>
<!-- 7&#45;&gt;11 -->
<g id="edge10" class="edge"><title>7&#45;&gt;11</title>
<path fill="none" stroke="grey" stroke-width="2" stroke-dasharray="5,2" d="M599.875,-171.595C600.145,-160.257 600.503,-145.227 600.81,-132.315"/>
<polygon fill="grey" stroke="grey" stroke-width="2" points="604.314,-132.176 601.053,-122.095 597.316,-132.009 604.314,-132.176"/>
<text text-anchor="middle" x="610.96" y="-142.8" font-family="Times,serif" font-size="14.00">375</text>
</g>
<!-- 7&#45;&gt;15 -->
<g id="edge8" class="edge"><title>7&#45;&gt;15</title>
<path fill="none" stroke="grey" stroke-width="2" d="M623.06,-171.756C649.16,-150.592 684.761,-114.063 662.46,-86 636.57,-53.4196 528.709,-35.3532 451.87,-26.4099"/>
<polygon fill="grey" stroke="grey" stroke-width="2" points="452.048,-22.9078 441.718,-25.26 451.26,-29.8633 452.048,-22.9078"/>
<text text-anchor="middle" x="679.96" y="-99.8" font-family="Times,serif" font-size="14.00">375</text>
</g>
<!-- 10 -->
<g id="node10" class="node"><title>10</title>
<path fill="none" stroke="#68d856" stroke-width="2" d="M238.562,-122C238.562,-122 166.359,-122 166.359,-122 160.359,-122 154.359,-116 154.359,-110 154.359,-110 154.359,-98 154.359,-98 154.359,-92 160.359,-86 166.359,-86 166.359,-86 238.562,-86 238.562,-86 244.562,-86 250.562,-92 250.562,-98 250.562,-98 250.562,-110 250.562,-110 250.562,-116 244.562,-122 238.562,-122"/>
<text text-anchor="middle" x="202.46" y="-101" font-family="sans" font-size="10.00">samtools_index: 9</text>
</g>
<!-- 8&#45;&gt;10 -->
<g id="edge12" class="edge"><title>8&#45;&gt;10</title>
<path fill="none" stroke="grey" stroke-width="2" d="M292.321,-171.799C275.41,-159.228 252.289,-142.04 233.734,-128.248"/>
<polygon fill="grey" stroke="grey" stroke-width="2" points="235.683,-125.335 225.569,-122.178 231.507,-130.953 235.683,-125.335"/>
<text text-anchor="middle" x="269.96" y="-142.8" font-family="Times,serif" font-size="14.00">9</text>
</g>
<!-- 12 -->
<g id="node12" class="node"><title>12</title>
<path fill="none" stroke="#56d87b" stroke-width="2" d="M350.273,-122C350.273,-122 280.648,-122 280.648,-122 274.648,-122 268.648,-116 268.648,-110 268.648,-110 268.648,-98 268.648,-98 268.648,-92 274.648,-86 280.648,-86 280.648,-86 350.273,-86 350.273,-86 356.273,-86 362.273,-92 362.273,-98 362.273,-98 362.273,-110 362.273,-110 362.273,-116 356.273,-122 350.273,-122"/>
<text text-anchor="middle" x="315.46" y="-101" font-family="sans" font-size="10.00">samtools_stats: 9</text>
</g>
<!-- 8&#45;&gt;12 -->
<g id="edge13" class="edge"><title>8&#45;&gt;12</title>
<path fill="none" stroke="grey" stroke-width="2" d="M315.46,-171.595C315.46,-160.257 315.46,-145.227 315.46,-132.315"/>
<polygon fill="grey" stroke="grey" stroke-width="2" points="318.961,-132.095 315.46,-122.095 311.961,-132.095 318.961,-132.095"/>
<text text-anchor="middle" x="318.96" y="-142.8" font-family="Times,serif" font-size="14.00">9</text>
</g>
<!-- 8&#45;&gt;15 -->
<g id="edge11" class="edge"><title>8&#45;&gt;15</title>
<path fill="none" stroke="grey" stroke-width="2" d="M335.637,-171.953C348.609,-159.599 364.324,-141.666 371.46,-122 380.384,-97.4103 379.109,-67.2906 376.377,-45.9901"/>
<polygon fill="grey" stroke="grey" stroke-width="2" points="379.829,-45.4024 374.91,-36.0184 372.903,-46.4214 379.829,-45.4024"/>
<text text-anchor="middle" x="381.96" y="-99.8" font-family="Times,serif" font-size="14.00">9</text>
</g>
<!-- 9&#45;&gt;15 -->
<g id="edge14" class="edge"><title>9&#45;&gt;15</title>
<path fill="none" stroke="grey" stroke-width="2" d="M455.754,-85.7986C440.034,-73.3415 418.592,-56.3498 401.268,-42.6214"/>
<polygon fill="grey" stroke="grey" stroke-width="2" points="403.149,-39.6461 393.138,-36.1783 398.802,-45.1323 403.149,-39.6461"/>
<text text-anchor="middle" x="440.96" y="-56.8" font-family="Times,serif" font-size="14.00">375</text>
</g>
<!-- 10&#45;&gt;15 -->
<g id="edge15" class="edge"><title>10&#45;&gt;15</title>
<path fill="none" stroke="grey" stroke-width="2" d="M237.068,-85.7986C263.356,-72.7321 299.683,-54.6766 327.941,-40.6311"/>
<polygon fill="grey" stroke="grey" stroke-width="2" points="329.791,-43.6198 337.188,-36.0346 326.676,-37.3514 329.791,-43.6198"/>
<text text-anchor="middle" x="300.96" y="-56.8" font-family="Times,serif" font-size="14.00">9</text>
</g>
<!-- 11&#45;&gt;15 -->
<g id="edge16" class="edge"><title>11&#45;&gt;15</title>
<path fill="none" stroke="grey" stroke-width="2" d="M554.639,-85.9001C517.951,-72.5009 466.773,-53.8098 427.835,-39.5891"/>
<polygon fill="grey" stroke="grey" stroke-width="2" points="428.81,-36.219 418.216,-36.076 426.408,-42.7942 428.81,-36.219"/>
<text text-anchor="middle" x="509.96" y="-56.8" font-family="Times,serif" font-size="14.00">375</text>
</g>
<!-- 12&#45;&gt;15 -->
<g id="edge17" class="edge"><title>12&#45;&gt;15</title>
<path fill="none" stroke="grey" stroke-width="2" d="M327.064,-85.5951C334.925,-73.8037 345.448,-58.0188 354.276,-44.7764"/>
<polygon fill="grey" stroke="grey" stroke-width="2" points="357.429,-46.3571 360.064,-36.0952 351.604,-42.4742 357.429,-46.3571"/>
<text text-anchor="middle" x="350.96" y="-56.8" font-family="Times,serif" font-size="14.00">9</text>
</g>
<!-- 13 -->
<g id="node13" class="node"><title>13</title>
<path fill="none" stroke="#d8a456" stroke-width="2" stroke-dasharray="5,2" d="M626.623,-380C626.623,-380 548.298,-380 548.298,-380 542.298,-380 536.298,-374 536.298,-368 536.298,-368 536.298,-356 536.298,-356 536.298,-350 542.298,-344 548.298,-344 548.298,-344 626.623,-344 626.623,-344 632.623,-344 638.623,-350 638.623,-356 638.623,-356 638.623,-368 638.623,-368 638.623,-374 632.623,-380 626.623,-380"/>
<text text-anchor="middle" x="587.46" y="-359" font-family="sans" font-size="10.00">trim_reads_pe: 375</text>
</g>
<!-- 13&#45;&gt;5 -->
<g id="edge18" class="edge"><title>13&#45;&gt;5</title>
<path fill="none" stroke="grey" stroke-width="2" stroke-dasharray="5,2" d="M587.46,-343.595C587.46,-332.257 587.46,-317.227 587.46,-304.315"/>
<polygon fill="grey" stroke="grey" stroke-width="2" points="590.961,-304.095 587.46,-294.095 583.961,-304.095 590.961,-304.095"/>
<text text-anchor="middle" x="597.96" y="-314.8" font-family="Times,serif" font-size="14.00">375</text>
</g>
<!-- 14 -->
<g id="node14" class="node"><title>14</title>
<path fill="none" stroke="#d8a456" stroke-width="2" d="M355,-380C355,-380 287.921,-380 287.921,-380 281.921,-380 275.921,-374 275.921,-368 275.921,-368 275.921,-356 275.921,-356 275.921,-350 281.921,-344 287.921,-344 287.921,-344 355,-344 355,-344 361,-344 367,-350 367,-356 367,-356 367,-368 367,-368 367,-374 361,-380 355,-380"/>
<text text-anchor="middle" x="321.46" y="-359" font-family="sans" font-size="10.00">trim_reads_pe: 9</text>
</g>
<!-- 14&#45;&gt;6 -->
<g id="edge19" class="edge"><title>14&#45;&gt;6</title>
<path fill="none" stroke="grey" stroke-width="2" d="M321.46,-343.595C321.46,-332.257 321.46,-317.227 321.46,-304.315"/>
<polygon fill="grey" stroke="grey" stroke-width="2" points="324.961,-304.095 321.46,-294.095 317.961,-304.095 324.961,-304.095"/>
<text text-anchor="middle" x="324.96" y="-314.8" font-family="Times,serif" font-size="14.00">9</text>
</g>
</g>
</svg>
